<?xml version="1.0" encoding="utf-8"?>
<!-- Generator: Adobe Illustrator 27.5.0, SVG Export Plug-In . SVG Version: 6.00 Build 0)  -->
<svg version="1.1" xmlns="http://www.w3.org/2000/svg" xmlns:xlink="http://www.w3.org/1999/xlink" x="0px" y="0px"
	 viewBox="0 0 500 500" style="enable-background:new 0 0 500 500;" xml:space="preserve">
<g id="Device">
	<g id="Mobile">
		<g>
			<path style="fill:#00826F;" d="M408.786,111.013H254.569c-10.634,0-19.251,8.617-19.251,19.241v305.056
				c0,10.634,8.617,19.251,19.251,19.251h154.218c10.624,0,19.241-8.617,19.241-19.251V130.254
				C428.028,119.63,419.411,111.013,408.786,111.013z"/>
			<g>
				<path style="fill:#303030;" d="M239.558,181.307L239.558,181.307c-2.487,0-4.503-2.016-4.503-4.503v-28.137
					c0-2.487,2.016-4.503,4.503-4.503l0,0c2.487,0,4.503,2.016,4.503,4.503v28.137C244.061,179.29,242.045,181.307,239.558,181.307z
					"/>
				<g>
					<path style="fill:#00826F;" d="M237.033,180.557c-2.069,0-3.753-1.684-3.753-3.753v-28.137c0-2.07,1.684-3.753,3.753-3.753
						c2.07,0,3.753,1.684,3.753,3.753v28.137C240.787,178.873,239.103,180.557,237.033,180.557z"/>
					<path style="fill:#303030;" d="M237.033,145.663c1.656,0,3.003,1.347,3.003,3.003v28.137c0,1.656-1.347,3.003-3.003,3.003
						c-1.656,0-3.003-1.347-3.003-3.003v-28.137C234.03,147.01,235.377,145.663,237.033,145.663 M237.033,144.163
						c-2.487,0-4.503,2.016-4.503,4.503v28.137c0,2.487,2.016,4.503,4.503,4.503c2.487,0,4.503-2.016,4.503-4.503v-28.137
						C241.537,146.179,239.52,144.163,237.033,144.163L237.033,144.163z"/>
				</g>
			</g>
			<g>
				<path style="fill:#303030;" d="M239.558,229.171L239.558,229.171c-2.487,0-4.503-2.016-4.503-4.503v-28.137
					c0-2.487,2.016-4.503,4.503-4.503l0,0c2.487,0,4.503,2.016,4.503,4.503v28.137C244.061,227.155,242.045,229.171,239.558,229.171
					z"/>
				<g>
					<path style="fill:#00826F;" d="M237.033,228.421c-2.069,0-3.753-1.684-3.753-3.753v-28.137c0-2.07,1.684-3.753,3.753-3.753
						c2.07,0,3.753,1.684,3.753,3.753v28.137C240.787,226.738,239.103,228.421,237.033,228.421z"/>
					<path style="fill:#303030;" d="M237.033,193.528c1.656,0,3.003,1.347,3.003,3.003v28.137c0,1.656-1.347,3.003-3.003,3.003
						c-1.656,0-3.003-1.347-3.003-3.003v-28.137C234.03,194.875,235.377,193.528,237.033,193.528 M237.033,192.028
						c-2.487,0-4.503,2.016-4.503,4.503v28.137c0,2.487,2.016,4.503,4.503,4.503c2.487,0,4.503-2.016,4.503-4.503v-28.137
						C241.537,194.044,239.52,192.028,237.033,192.028L237.033,192.028z"/>
				</g>
			</g>
		</g>
		<g>
			
				<path style="fill:#FFFFFF;stroke:#303030;stroke-width:1.5;stroke-linecap:round;stroke-linejoin:round;stroke-miterlimit:10;" d="
				M430.076,129.841v305.056c0,5.128-4.174,9.312-9.303,9.312H266.556c-5.129,0-9.313-4.184-9.313-9.312V129.841
				c0-5.128,4.184-9.303,9.313-9.303h154.218C425.902,120.538,430.076,124.713,430.076,129.841z"/>
			
				<path style="fill:#FF95FB;stroke:#303030;stroke-width:1.5;stroke-linecap:round;stroke-linejoin:round;stroke-miterlimit:10;" d="
				M421.073,120.952H266.855c-5.129,0-9.313,4.174-9.313,9.303v76.144h172.833v-76.144
				C430.376,125.126,426.201,120.952,421.073,120.952z"/>
			<g>
				<g id="XMLID_615_">
					<path id="XMLID_629_" style="fill:#FFFFFF;" d="M283.626,135.649c-0.039-0.043-0.06-0.114-0.06-0.211v-0.92l-2.216,0.001
						c-0.121-0.001-0.182-0.065-0.182-0.196l0-0.33c0-0.074,0.007-0.133,0.02-0.174c0.015-0.04,0.04-0.09,0.077-0.148l2.357-3.296
						c0.043-0.06,0.08-0.099,0.113-0.121c0.032-0.022,0.083-0.034,0.154-0.033l0.308,0.001c0.093-0.001,0.16,0.023,0.203,0.072
						c0.041,0.048,0.063,0.124,0.063,0.226l0,3.215l0.489,0c0.094,0.001,0.159,0.022,0.196,0.067
						c0.038,0.047,0.056,0.121,0.056,0.223l0,0.22c0,0.097-0.019,0.166-0.056,0.209c-0.037,0.043-0.102,0.066-0.196,0.065l-0.49,0
						v0.92c0,0.097-0.02,0.168-0.059,0.21c-0.04,0.042-0.109,0.065-0.206,0.065l-0.372-0.001
						C283.732,135.713,283.666,135.692,283.626,135.649z M283.713,133.734l0-2.293l-1.609,2.293L283.713,133.734z"/>
					<path id="XMLID_618_" style="fill:#FFFFFF;" d="M286.259,135.091c-0.435-0.495-0.651-1.204-0.651-2.124
						c0-0.916,0.218-1.623,0.654-2.12c0.436-0.498,1.049-0.746,1.836-0.747c0.317-0.001,0.614,0.036,0.889,0.114
						c0.275,0.075,0.503,0.181,0.685,0.322c0.042,0.031,0.063,0.067,0.063,0.105c0,0.026-0.009,0.059-0.027,0.096l-0.203,0.404
						c-0.028,0.048-0.055,0.074-0.084,0.074c-0.015-0.001-0.045-0.015-0.091-0.04c-0.317-0.205-0.695-0.307-1.133-0.307
						c-0.532,0.001-0.95,0.173-1.253,0.52c-0.302,0.349-0.454,0.874-0.454,1.58c0,0.711,0.147,1.24,0.441,1.583
						c0.293,0.344,0.696,0.516,1.209,0.517c0.187,0,0.368-0.017,0.545-0.052c0.177-0.036,0.322-0.085,0.435-0.149l0-1.495
						l-0.923-0.001c-0.094,0.001-0.159-0.022-0.195-0.068c-0.038-0.046-0.057-0.119-0.057-0.222l0-0.21
						c0-0.102,0.019-0.173,0.057-0.213c0.037-0.041,0.102-0.061,0.196-0.062l1.475,0c0.102,0,0.176,0.029,0.22,0.086
						c0.045,0.056,0.066,0.144,0.066,0.262v2.132c0,0.08-0.007,0.141-0.022,0.181c-0.013,0.041-0.044,0.077-0.09,0.109
						c-0.428,0.312-1.012,0.468-1.749,0.468C287.305,135.834,286.692,135.587,286.259,135.091z"/>
				</g>
				<g id="XMLID_1185_">
					<g id="XMLID_613_">
						<path id="XMLID_614_" style="fill:#FFFFFF;" d="M299.98,134.753c0,0.711-0.576,1.286-1.286,1.286
							c-0.711,0-1.287-0.576-1.286-1.286c0-0.71,0.576-1.286,1.286-1.287C299.404,133.466,299.98,134.042,299.98,134.753z"/>
					</g>
					<g id="XMLID_518_">
						<g id="XMLID_605_">
							<path id="XMLID_610_" style="fill:#FFFFFF;" d="M298.693,131.361c-1.296,0-2.422,0.727-2.993,1.794
								c-0.116,0.217-0.057,0.487,0.136,0.638l0.002,0.002c0.244,0.191,0.604,0.12,0.749-0.154c0.398-0.757,1.194-1.27,2.105-1.27
								c0.913,0,1.708,0.513,2.105,1.27c0.144,0.275,0.506,0.346,0.751,0.154l0.002-0.002c0.192-0.151,0.25-0.421,0.135-0.636
								C301.116,132.088,299.989,131.361,298.693,131.361z"/>
						</g>
					</g>
					<g id="XMLID_1186_">
						<g id="XMLID_475_">
							<path id="XMLID_476_" style="fill:#FFFFFF;" d="M298.693,129.301c-1.927,0-3.623,1.008-4.594,2.524
								c-0.143,0.223-0.102,0.517,0.106,0.681l0.004,0.003c0.236,0.186,0.577,0.123,0.738-0.131
								c0.786-1.242,2.171-2.067,3.747-2.067c1.575,0,2.964,0.825,3.751,2.068c0.161,0.253,0.501,0.317,0.737,0.131l0,0
								c0.208-0.163,0.249-0.457,0.107-0.68C302.325,130.313,300.624,129.301,298.693,129.301z"/>
						</g>
					</g>
				</g>
				<g>
					<rect x="263.536" y="134.559" style="fill:#FFFFFF;" width="2.365" height="1.774"/>
					<rect x="267.084" y="132.785" style="fill:#FFFFFF;" width="2.365" height="3.548"/>
					<rect x="270.633" y="131.012" style="fill:#FFFFFF;" width="2.365" height="5.322"/>
					<rect x="274.181" y="129.237" style="fill:#FFFFFF;" width="2.365" height="7.096"/>
				</g>
				<g id="XMLID_430_">
					<path style="fill:#FFFFFF;" d="M424.141,131.767h-0.625v-0.701c0-0.806-0.655-1.461-1.461-1.461h-9.197
						c-0.806,0-1.461,0.655-1.461,1.461v4.361c0,0.806,0.655,1.461,1.461,1.461h9.197c0.806,0,1.461-0.655,1.461-1.461v-0.755h0.625
						c0.253,0,0.458-0.205,0.458-0.458v-1.989C424.599,131.972,424.394,131.767,424.141,131.767z M422.516,135.428
						c0,0.254-0.207,0.461-0.461,0.461h-9.197c-0.254,0-0.461-0.207-0.461-0.461v-4.361c0-0.254,0.207-0.461,0.461-0.461h9.197
						c0.254,0,0.461,0.207,0.461,0.461V135.428z M413.028,135.15h1.68v-3.838h-1.68V135.15z M415.389,135.15h1.68v-3.838h-1.68
						V135.15z M417.75,135.15h1.679v-3.838h-1.679V135.15z M420.11,135.15h1.679v-3.838h-1.679V135.15z"/>
				</g>
				<polygon style="fill:#FFFFFF;" points="402.189,133.22 408.389,130.105 406.767,136.785 405.517,133.892 				"/>
			</g>
		</g>
		<path style="fill:#303030;" d="M421.073,111.013H266.855c-10.634,0-19.251,8.617-19.251,19.241v305.056
			c0,10.634,8.617,19.251,19.251,19.251h154.218c10.624,0,19.241-8.617,19.241-19.251V130.254
			C440.314,119.63,431.697,111.013,421.073,111.013z M430.376,435.311c0,5.122-4.191,9.313-9.313,9.313H266.855
			c-5.122,0-9.313-4.191-9.313-9.313V130.254c0-5.138,4.165-9.303,9.303-9.303h37.133c3.421,0,6.404,2.328,7.235,5.646v0
			c0.831,3.319,3.814,5.646,7.235,5.646h51.03c3.421,0,6.404-2.328,7.235-5.646v0c0.831-3.319,3.814-5.646,7.235-5.646h37.126
			c5.138,0,9.303,4.165,9.303,9.303V435.311z"/>
	</g>
	<g id="App">
		<g>
			<path style="fill:#303030;" d="M276.261,167.152v-9.501c0-0.626,0.507-1.133,1.134-1.133h0.35c0.626,0,1.134,0.507,1.134,1.133
				v9.501c0,0.626-0.508,1.134-1.134,1.134h-0.35C276.768,168.285,276.261,167.778,276.261,167.152z M277.828,162.234
				L277.828,162.234c0-0.626,0.508-1.133,1.134-1.133h4.317c0.626,0,1.134,0.507,1.134,1.133l0,0c0,0.626-0.508,1.134-1.134,1.134
				h-4.317C278.335,163.368,277.828,162.861,277.828,162.234z M283.545,167.152v-9.501c0-0.626,0.507-1.133,1.134-1.133h0.367
				c0.626,0,1.134,0.507,1.134,1.133v9.501c0,0.626-0.508,1.134-1.134,1.134h-0.367
				C284.052,168.285,283.545,167.778,283.545,167.152z"/>
			<path style="fill:#303030;" d="M294.046,168.485c-0.889,0-1.708-0.156-2.458-0.467c-0.751-0.311-1.409-0.744-1.976-1.3
				c-0.567-0.555-1.006-1.203-1.316-1.942c-0.311-0.739-0.467-1.536-0.467-2.392c0-0.867,0.156-1.667,0.467-2.4
				c0.311-0.733,0.744-1.375,1.3-1.925c0.555-0.551,1.208-0.978,1.959-1.284c0.75-0.305,1.569-0.458,2.458-0.458
				c0.878,0,1.692,0.152,2.442,0.458c0.751,0.306,1.406,0.734,1.967,1.284c0.561,0.55,0.997,1.195,1.308,1.934
				c0.312,0.739,0.467,1.542,0.467,2.408c0,0.856-0.155,1.653-0.467,2.392c-0.311,0.74-0.744,1.384-1.3,1.934
				c-0.555,0.551-1.208,0.981-1.958,1.292C295.721,168.329,294.913,168.485,294.046,168.485z M294.013,166.102
				c0.7,0,1.314-0.156,1.842-0.467c0.528-0.311,0.936-0.748,1.225-1.309c0.289-0.56,0.433-1.208,0.433-1.942
				c0-0.555-0.083-1.058-0.25-1.508c-0.167-0.45-0.406-0.839-0.717-1.167c-0.311-0.327-0.681-0.578-1.108-0.75
				c-0.428-0.172-0.903-0.259-1.426-0.259c-0.7,0-1.314,0.153-1.842,0.459c-0.528,0.305-0.936,0.733-1.225,1.283
				c-0.289,0.551-0.434,1.197-0.434,1.942c0,0.556,0.084,1.061,0.251,1.517c0.167,0.456,0.403,0.847,0.708,1.175
				c0.306,0.328,0.675,0.58,1.108,0.759C293.013,166.013,293.49,166.102,294.013,166.102z"/>
			<path style="fill:#303030;" d="M304.131,166.976v-10.293h2.618v10.293c0,0.723-0.586,1.309-1.309,1.309l0,0
				C304.717,168.285,304.131,167.699,304.131,166.976z"/>
			<rect x="300.447" y="156.517" style="fill:#303030;" width="9.985" height="2.283"/>
			<path style="fill:#303030;" d="M311.899,167.193v-9.584c0-0.603,0.489-1.092,1.092-1.092h1.525v11.768h-1.525
				C312.388,168.285,311.899,167.796,311.899,167.193z M313.9,158.767v-2.25h5.276c0.603,0,1.092,0.489,1.092,1.092v0.066
				c0,0.603-0.489,1.092-1.092,1.092H313.9z M313.9,163.368v-2.184h4.776c0.603,0,1.092,0.489,1.092,1.092l0,0
				c0,0.603-0.489,1.092-1.092,1.092H313.9z M313.9,168.285v-2.267h5.359c0.603,0,1.092,0.489,1.092,1.092v0.083
				c0,0.603-0.489,1.092-1.092,1.092H313.9z"/>
			<path style="fill:#303030;" d="M322.151,168.285v-11.768h2.617v11.768H322.151z M324.167,168.285v-2.301h4.668
				c0.635,0,1.15,0.515,1.15,1.15l0,0c0,0.635-0.515,1.15-1.15,1.15H324.167z"/>
			<path style="fill:#303030;" d="M334.536,166.359v-9.842h2.583v11.768h-0.657C335.399,168.285,334.536,167.423,334.536,166.359z
				 M336.536,168.285v-2.034h2.767c0.511,0,0.911-0.15,1.2-0.45c0.288-0.3,0.434-0.667,0.434-1.1c0-0.3-0.067-0.567-0.2-0.8
				c-0.133-0.233-0.32-0.417-0.559-0.55c-0.239-0.133-0.531-0.2-0.875-0.2h-2.767v-1.983h2.55c0.433,0,0.784-0.108,1.051-0.325
				c0.267-0.216,0.4-0.547,0.4-0.992c0-0.433-0.133-0.758-0.4-0.975c-0.267-0.216-0.617-0.325-1.051-0.325h-2.55v-2.033h3.05
				c0.756,0,1.398,0.139,1.926,0.416c0.527,0.278,0.931,0.651,1.208,1.116c0.277,0.467,0.417,0.984,0.417,1.551
				c0,0.723-0.233,1.334-0.7,1.834c-0.467,0.5-1.156,0.844-2.067,1.034l0.067-0.884c0.988,0.189,1.753,0.573,2.291,1.151
				c0.539,0.578,0.809,1.29,0.809,2.134c0,0.644-0.159,1.225-0.476,1.742c-0.316,0.516-0.772,0.925-1.367,1.225
				c-0.595,0.3-1.308,0.45-2.142,0.45H336.536z"/>
			<path style="fill:#303030;" d="M350.837,168.485c-0.889,0-1.708-0.156-2.458-0.467c-0.751-0.311-1.409-0.744-1.976-1.3
				c-0.567-0.555-1.006-1.203-1.316-1.942c-0.311-0.739-0.467-1.536-0.467-2.392c0-0.867,0.156-1.667,0.467-2.4
				c0.311-0.733,0.744-1.375,1.3-1.925c0.555-0.551,1.208-0.978,1.959-1.284c0.75-0.305,1.569-0.458,2.458-0.458
				c0.878,0,1.692,0.152,2.442,0.458c0.751,0.306,1.406,0.734,1.967,1.284c0.561,0.55,0.997,1.195,1.308,1.934
				c0.312,0.739,0.467,1.542,0.467,2.408c0,0.856-0.155,1.653-0.467,2.392c-0.311,0.74-0.744,1.384-1.3,1.934
				c-0.555,0.551-1.208,0.981-1.958,1.292C352.513,168.329,351.704,168.485,350.837,168.485z M350.804,166.102
				c0.7,0,1.314-0.156,1.842-0.467c0.528-0.311,0.936-0.748,1.225-1.309c0.289-0.56,0.434-1.208,0.434-1.942
				c0-0.555-0.083-1.058-0.25-1.508c-0.167-0.45-0.406-0.839-0.717-1.167c-0.311-0.327-0.681-0.578-1.108-0.75
				c-0.428-0.172-0.903-0.259-1.426-0.259c-0.7,0-1.314,0.153-1.842,0.459c-0.528,0.305-0.936,0.733-1.225,1.283
				c-0.289,0.551-0.433,1.197-0.433,1.942c0,0.556,0.084,1.061,0.25,1.517c0.167,0.456,0.403,0.847,0.708,1.175
				c0.305,0.328,0.675,0.58,1.108,0.759C349.804,166.013,350.281,166.102,350.804,166.102z"/>
			<path style="fill:#303030;" d="M364.44,168.485c-0.889,0-1.708-0.156-2.458-0.467c-0.751-0.311-1.409-0.744-1.976-1.3
				c-0.567-0.555-1.006-1.203-1.316-1.942c-0.311-0.739-0.467-1.536-0.467-2.392c0-0.867,0.156-1.667,0.467-2.4
				c0.311-0.733,0.744-1.375,1.3-1.925c0.555-0.551,1.208-0.978,1.959-1.284c0.75-0.305,1.569-0.458,2.458-0.458
				c0.878,0,1.692,0.152,2.442,0.458c0.751,0.306,1.406,0.734,1.967,1.284c0.561,0.55,0.997,1.195,1.308,1.934
				c0.312,0.739,0.467,1.542,0.467,2.408c0,0.856-0.155,1.653-0.467,2.392c-0.311,0.74-0.744,1.384-1.3,1.934
				c-0.555,0.551-1.208,0.981-1.958,1.292C366.115,168.329,365.307,168.485,364.44,168.485z M364.407,166.102
				c0.7,0,1.314-0.156,1.842-0.467c0.528-0.311,0.936-0.748,1.225-1.309c0.289-0.56,0.433-1.208,0.433-1.942
				c0-0.555-0.083-1.058-0.25-1.508c-0.167-0.45-0.406-0.839-0.717-1.167c-0.311-0.327-0.681-0.578-1.108-0.75
				c-0.428-0.172-0.903-0.259-1.426-0.259c-0.7,0-1.314,0.153-1.842,0.459c-0.528,0.305-0.936,0.733-1.225,1.283
				c-0.289,0.551-0.433,1.197-0.433,1.942c0,0.556,0.084,1.061,0.251,1.517c0.167,0.456,0.403,0.847,0.708,1.175
				s0.675,0.58,1.108,0.759C363.407,166.013,363.884,166.102,364.407,166.102z"/>
			<path style="fill:#303030;" d="M372.258,168.285v-11.768h2.617v11.768H372.258z M379.007,167.811l-4.399-5.661l4.25-5.185
				c0.233-0.284,0.581-0.449,0.949-0.449l0,0c1.046,0,1.612,1.224,0.935,2.021l-3.482,4.096v-1.067l3.775,4.725
				c0.642,0.803,0.07,1.992-0.958,1.992h-0.1C379.597,168.285,379.24,168.11,379.007,167.811z"/>
			<path style="fill:#303030;" d="M383.71,166.977v-9.151c0-0.723,0.586-1.308,1.308-1.308l0,0c0.723,0,1.308,0.586,1.308,1.308
				v9.151c0,0.723-0.586,1.308-1.308,1.308l0,0C384.296,168.285,383.71,167.699,383.71,166.977z"/>
			<path style="fill:#303030;" d="M396.011,156.517v7.154l-5.584-7.154h-1.833v10.46c0,0.723,0.586,1.308,1.308,1.308
				c0.723,0,1.309-0.586,1.309-1.308v-5.74l5.114,6.552c0.244,0.313,0.619,0.495,1.015,0.495l0,0c0.711,0,1.288-0.577,1.288-1.288
				v-10.48H396.011z"/>
			<path style="fill:#303030;" d="M406.212,162.735L406.212,162.735c0,0.61,0.49,1.108,1.1,1.117l2.266,0.036
				c-0.063,0.238-0.133,0.47-0.24,0.671c-0.261,0.495-0.633,0.873-1.117,1.134c-0.483,0.261-1.07,0.392-1.758,0.392
				c-0.678,0-1.279-0.155-1.8-0.467c-0.523-0.311-0.934-0.744-1.234-1.3c-0.3-0.555-0.45-1.2-0.45-1.934
				c0-0.734,0.153-1.375,0.459-1.925c0.306-0.551,0.731-0.978,1.275-1.284c0.544-0.305,1.161-0.459,1.851-0.459
				c0.644,0,1.222,0.123,1.734,0.367c0.239,0.115,0.463,0.256,0.673,0.424c0.43,0.344,1.058,0.279,1.448-0.11l0.182-0.182
				c0.465-0.465,0.452-1.258-0.075-1.652c-0.352-0.263-0.742-0.49-1.17-0.679c-0.828-0.367-1.747-0.551-2.758-0.551
				c-0.878,0-1.7,0.153-2.467,0.459c-0.767,0.305-1.436,0.734-2.008,1.283c-0.573,0.551-1.02,1.192-1.343,1.926
				c-0.322,0.734-0.483,1.528-0.483,2.383c0,0.856,0.159,1.654,0.475,2.392c0.317,0.739,0.753,1.383,1.308,1.934
				c0.556,0.55,1.21,0.98,1.959,1.292c0.751,0.311,1.553,0.466,2.409,0.466c1.167,0,2.198-0.244,3.092-0.733
				c0.894-0.489,1.594-1.215,2.1-2.176c0.505-0.961,0.758-2.147,0.758-3.558v-0.384h-5.066
				C406.713,161.617,406.212,162.117,406.212,162.735z"/>
		</g>
		
			<path style="fill:#FFFFFF;stroke:#303030;stroke-width:1.5;stroke-linecap:round;stroke-linejoin:round;stroke-miterlimit:10;" d="
			M386.327,193.8H282.788c-3.605,0-6.528-2.923-6.528-6.528l0,0c0-3.605,2.922-6.528,6.528-6.528h103.538
			c3.605,0,6.528,2.923,6.528,6.528l0,0C392.854,190.877,389.932,193.8,386.327,193.8z"/>
		<path style="fill:#FFFFFF;" d="M412.293,192.911l-2.957-2.957c0.817-1.07,1.308-2.401,1.308-3.848
			c0-3.508-2.854-6.361-6.361-6.361c-3.508,0-6.361,2.854-6.361,6.361c0,3.508,2.853,6.361,6.361,6.361
			c1.34,0,2.583-0.419,3.609-1.129l2.987,2.988c0.195,0.195,0.451,0.293,0.707,0.293c0.256,0,0.512-0.098,0.707-0.293
			C412.684,193.934,412.684,193.301,412.293,192.911z M404.283,190.467c-2.405,0-4.361-1.956-4.361-4.361
			c0-2.405,1.956-4.361,4.361-4.361s4.361,1.956,4.361,4.361C408.644,188.51,406.688,190.467,404.283,190.467z"/>
		<g>
			<path style="fill:#00826F;" d="M274.335,217.981c-4.957,0-8.975,4.018-8.975,8.975c0,5.144,4.188,9.518,8.975,12.685
				c4.65-2.94,8.975-7.541,8.975-12.685C283.31,221.999,279.293,217.981,274.335,217.981z M274.335,231.63
				c-2.73,0-4.941-2.211-4.941-4.941c0-2.73,2.211-4.941,4.941-4.941c2.73,0,4.941,2.211,4.941,4.941
				C279.277,229.419,277.065,231.63,274.335,231.63z"/>
			<g>
				
					<path style="fill:#FFFFFF;stroke:#00826F;stroke-width:1.5;stroke-linecap:round;stroke-linejoin:round;stroke-miterlimit:10;" d="
					M376.733,220.46h-16.74c-1.42,0-2.57,1.15-2.57,2.57v15.03c0,1.42,1.15,2.57,2.57,2.57h16.74c1.42,0,2.57-1.15,2.57-2.57v-15.03
					C379.302,221.61,378.152,220.46,376.733,220.46z M373.343,234.81h-9.97v-8.53h9.97V234.81z"/>
				<g>
					<path style="fill:#00826F;" d="M361.408,223.278L361.408,223.278c-0.367,0-0.665-0.298-0.665-0.665v-4.956
						c0-0.367,0.298-0.665,0.665-0.665l0,0c0.367,0,0.665,0.298,0.665,0.665v4.956C362.072,222.98,361.775,223.278,361.408,223.278z
						"/>
					<path style="fill:#00826F;" d="M366.043,223.278L366.043,223.278c-0.367,0-0.665-0.298-0.665-0.665v-4.956
						c0-0.367,0.297-0.665,0.665-0.665l0,0c0.367,0,0.665,0.298,0.665,0.665v4.956C366.708,222.98,366.41,223.278,366.043,223.278z"
						/>
					<path style="fill:#00826F;" d="M370.679,223.278L370.679,223.278c-0.367,0-0.665-0.298-0.665-0.665v-4.956
						c0-0.367,0.298-0.665,0.665-0.665l0,0c0.367,0,0.665,0.298,0.665,0.665v4.956C371.344,222.98,371.046,223.278,370.679,223.278z
						"/>
					<path style="fill:#00826F;" d="M375.315,223.278L375.315,223.278c-0.367,0-0.665-0.298-0.665-0.665v-4.956
						c0-0.367,0.298-0.665,0.665-0.665l0,0c0.367,0,0.665,0.298,0.665,0.665v4.956C375.979,222.98,375.682,223.278,375.315,223.278z
						"/>
				</g>
			</g>
			
				<path style="fill:#FFFFFF;stroke:#00826F;stroke-width:1.5;stroke-linecap:round;stroke-linejoin:round;stroke-miterlimit:10;" d="
				M340.696,239.619h-43.931c-3.226,0-5.84-2.615-5.84-5.84v-9.934c0-3.225,2.615-5.84,5.84-5.84h43.931
				c3.225,0,5.84,2.615,5.84,5.84v9.934C346.536,237.004,343.921,239.619,340.696,239.619z"/>
			<g>
				
					<path style="fill:#FFFFFF;stroke:#00826F;stroke-width:1.5;stroke-linecap:round;stroke-linejoin:round;stroke-miterlimit:10;" d="
					M419.911,227.636h-30.313c-0.996,0-1.804-0.808-1.804-1.804v-6.046c0-0.996,0.808-1.804,1.804-1.804h30.313
					c0.996,0,1.804,0.808,1.804,1.804v6.046C421.715,226.828,420.908,227.636,419.911,227.636z"/>
				
					<path style="fill:#FFFFFF;stroke:#00826F;stroke-width:1.5;stroke-linecap:round;stroke-linejoin:round;stroke-miterlimit:10;" d="
					M419.911,241.665h-30.313c-0.996,0-1.804-0.808-1.804-1.804v-6.046c0-0.996,0.808-1.804,1.804-1.804h30.313
					c0.996,0,1.804,0.808,1.804,1.804v6.046C421.715,240.857,420.908,241.665,419.911,241.665z"/>
			</g>
		</g>
		<g>
			
				<path style="fill:#FFFFFF;stroke:#F55571;stroke-width:1.5;stroke-linecap:round;stroke-linejoin:round;stroke-miterlimit:10;" d="
				M446.407,306.465H305.552c-3.262,0-5.907-2.644-5.907-5.907v-40.056c0-3.262,2.645-5.907,5.907-5.907h140.855
				c3.262,0,5.907,2.644,5.907,5.907v40.056C452.313,303.821,449.669,306.465,446.407,306.465z"/>
			<g>
				<path style="fill:#00826F;" d="M400.718,265.734h-45.311c-1.017,0-1.842-0.825-1.842-1.842l0,0c0-1.017,0.825-1.842,1.842-1.842
					h45.311c1.017,0,1.842,0.825,1.842,1.842l0,0C402.56,264.909,401.736,265.734,400.718,265.734z"/>
				<path style="fill:#FF95FB;" d="M358.999,271.475l-1.584-0.104l-0.588-1.475c-0.1-0.251-0.456-0.251-0.556,0l-0.588,1.475
					l-1.584,0.104c-0.27,0.018-0.38,0.356-0.172,0.529l1.221,1.015l-0.391,1.539c-0.067,0.262,0.221,0.471,0.45,0.327l1.342-0.847
					l1.342,0.847c0.229,0.144,0.517-0.065,0.45-0.327l-0.391-1.539l1.221-1.015C359.379,271.831,359.269,271.493,358.999,271.475z"
					/>
				<path style="fill:#FF95FB;" d="M367.693,271.475l-1.584-0.104l-0.588-1.475c-0.1-0.251-0.456-0.251-0.556,0l-0.588,1.475
					l-1.584,0.104c-0.27,0.018-0.38,0.356-0.172,0.529l1.221,1.015l-0.391,1.539c-0.067,0.262,0.221,0.471,0.45,0.327l1.343-0.847
					l1.342,0.847c0.229,0.144,0.517-0.065,0.45-0.327l-0.391-1.539l1.221-1.015C368.073,271.831,367.963,271.493,367.693,271.475z"
					/>
				<path style="fill:#FF95FB;" d="M376.387,271.475l-1.584-0.104l-0.588-1.475c-0.1-0.251-0.456-0.251-0.556,0l-0.588,1.475
					l-1.584,0.104c-0.27,0.018-0.38,0.356-0.172,0.529l1.221,1.015l-0.391,1.539c-0.067,0.262,0.221,0.471,0.45,0.327l1.342-0.847
					l1.342,0.847c0.229,0.144,0.517-0.065,0.45-0.327l-0.391-1.539l1.221-1.015C376.767,271.831,376.657,271.493,376.387,271.475z"
					/>
				<path style="fill:#FF95FB;" d="M385.081,271.475l-1.584-0.104l-0.588-1.475c-0.1-0.251-0.456-0.251-0.556,0l-0.588,1.475
					l-1.584,0.104c-0.27,0.018-0.38,0.356-0.172,0.529l1.221,1.015l-0.391,1.539c-0.067,0.262,0.221,0.471,0.45,0.327l1.342-0.847
					l1.342,0.847c0.229,0.144,0.517-0.065,0.45-0.327l-0.391-1.539l1.221-1.015C385.461,271.831,385.351,271.493,385.081,271.475z"
					/>
				<path style="fill:#FF95FB;" d="M393.775,271.475l-1.584-0.104l-0.588-1.475c-0.1-0.251-0.456-0.251-0.556,0l-0.588,1.475
					l-1.584,0.104c-0.27,0.018-0.38,0.356-0.172,0.529l1.221,1.015l-0.391,1.539c-0.067,0.262,0.221,0.471,0.45,0.327l1.342-0.847
					l1.342,0.847c0.229,0.144,0.517-0.065,0.45-0.327l-0.391-1.539l1.221-1.015C394.155,271.831,394.045,271.493,393.775,271.475z"
					/>
				
					<line style="fill:#FFFFFF;stroke:#00826F;stroke-width:1.5;stroke-linecap:round;stroke-linejoin:round;stroke-miterlimit:10;" x1="354.894" y1="281.085" x2="438.317" y2="281.085"/>
				
					<line style="fill:#FFFFFF;stroke:#00826F;stroke-width:1.5;stroke-linecap:round;stroke-linejoin:round;stroke-miterlimit:10;" x1="354.894" y1="287.239" x2="405.254" y2="287.239"/>
				<path style="fill:#00826F;" d="M357.388,291.092c-1.972,0-3.57,1.598-3.57,3.57c0,2.046,1.666,3.786,3.57,5.046
					c1.85-1.17,3.57-3,3.57-5.046C360.959,292.69,359.36,291.092,357.388,291.092z M357.388,296.522
					c-1.086,0-1.966-0.88-1.966-1.966c0-1.086,0.88-1.966,1.966-1.966c1.086,0,1.966,0.88,1.966,1.966
					C359.354,295.642,358.474,296.522,357.388,296.522z"/>
				
					<line style="fill:#FFFFFF;stroke:#00826F;stroke-width:1.5;stroke-linecap:round;stroke-linejoin:round;stroke-miterlimit:10;" x1="364.165" y1="295.4" x2="399.6" y2="295.4"/>
				<path style="fill:#F55571;" d="M442.331,299.709h-28.895c-1.505,0-2.724-1.22-2.724-2.724v-3.168
					c0-1.505,1.22-2.724,2.724-2.724h28.895c1.505,0,2.724,1.22,2.724,2.724v3.168C445.055,298.489,443.835,299.709,442.331,299.709
					z"/>
				<g>
					
						<path style="fill:#FFFFFF;stroke:#00826F;stroke-width:1.5;stroke-linecap:round;stroke-linejoin:round;stroke-miterlimit:10;" d="
						M340.792,299.709h-30.32c-2.219,0-4.018-1.799-4.018-4.018v-30.32c0-2.219,1.799-4.018,4.018-4.018h30.32
						c2.219,0,4.018,1.799,4.018,4.018v30.32C344.81,297.91,343.011,299.709,340.792,299.709z"/>
					<g>
						
							<line style="fill:#FFFFFF;stroke:#00826F;stroke-width:1.5;stroke-linecap:round;stroke-linejoin:round;stroke-miterlimit:10;" x1="312.112" y1="292.591" x2="339.151" y2="292.591"/>
						
							<rect x="314.855" y="267.631" style="fill:#FFFFFF;stroke:#00826F;stroke-width:1.5;stroke-linecap:round;stroke-linejoin:round;stroke-miterlimit:10;" width="21.553" height="24.96"/>
						
							<line style="fill:#FFFFFF;stroke:#00826F;stroke-width:1.5;stroke-linecap:round;stroke-linejoin:round;stroke-miterlimit:10;" x1="312.112" y1="284.398" x2="339.151" y2="284.398"/>
						<rect x="323.887" y="286.811" style="fill:#00826F;" width="3.489" height="5.779"/>
						<rect x="330.101" y="286.811" style="fill:#00826F;" width="3.489" height="2.577"/>
						
							<rect x="317.673" y="286.811" transform="matrix(-1 -1.224647e-16 1.224647e-16 -1 638.8356 576.1999)" style="fill:#00826F;" width="3.489" height="2.577"/>
						<g>
							<rect x="330.101" y="279.141" style="fill:#00826F;" width="3.489" height="2.577"/>
							
								<rect x="317.673" y="279.141" transform="matrix(-1 -1.224647e-16 1.224647e-16 -1 638.8356 560.8582)" style="fill:#00826F;" width="3.489" height="2.577"/>
							
								<rect x="323.887" y="279.141" transform="matrix(-1 -1.224647e-16 1.224647e-16 -1 651.2636 560.8582)" style="fill:#00826F;" width="3.489" height="2.577"/>
							<rect x="330.101" y="274.689" style="fill:#00826F;" width="3.489" height="2.577"/>
							
								<rect x="317.673" y="274.689" transform="matrix(-1 -1.224647e-16 1.224647e-16 -1 638.8356 551.9553)" style="fill:#00826F;" width="3.489" height="2.577"/>
							
								<rect x="323.887" y="274.689" transform="matrix(-1 -1.224647e-16 1.224647e-16 -1 651.2636 551.9553)" style="fill:#00826F;" width="3.489" height="2.577"/>
							<rect x="330.101" y="270.109" style="fill:#00826F;" width="3.489" height="2.577"/>
							
								<rect x="317.673" y="270.109" transform="matrix(-1 -1.224647e-16 1.224647e-16 -1 638.8356 542.7945)" style="fill:#00826F;" width="3.489" height="2.577"/>
							
								<rect x="323.887" y="270.109" transform="matrix(-1 -1.224647e-16 1.224647e-16 -1 651.2636 542.7945)" style="fill:#00826F;" width="3.489" height="2.577"/>
						</g>
					</g>
				</g>
			</g>
		</g>
		<g>
			
				<path style="fill:#FFFFFF;stroke:#F55571;stroke-width:1.5;stroke-linecap:round;stroke-linejoin:round;stroke-miterlimit:10;" d="
				M414.203,370.501H273.349c-3.262,0-5.907-2.645-5.907-5.907v-40.056c0-3.262,2.645-5.907,5.907-5.907h140.855
				c3.262,0,5.907,2.645,5.907,5.907v40.056C420.11,367.857,417.466,370.501,414.203,370.501z"/>
			<g>
				<path style="fill:#00826F;" d="M368.74,329.77h-45.311c-1.017,0-1.842-0.825-1.842-1.842l0,0c0-1.017,0.825-1.842,1.842-1.842
					h45.311c1.017,0,1.842,0.825,1.842,1.842l0,0C370.582,328.945,369.757,329.77,368.74,329.77z"/>
				<path style="fill:#FF95FB;" d="M327.02,335.511l-1.584-0.104l-0.588-1.475c-0.1-0.251-0.456-0.251-0.556,0l-0.588,1.475
					l-1.584,0.104c-0.27,0.018-0.38,0.356-0.172,0.529l1.221,1.015l-0.391,1.539c-0.067,0.262,0.221,0.471,0.45,0.327l1.342-0.847
					l1.342,0.847c0.229,0.145,0.517-0.065,0.45-0.327l-0.391-1.539l1.221-1.015C327.4,335.867,327.29,335.529,327.02,335.511z"/>
				<path style="fill:#FF95FB;" d="M335.714,335.511l-1.584-0.104l-0.588-1.475c-0.1-0.251-0.456-0.251-0.556,0l-0.588,1.475
					l-1.584,0.104c-0.27,0.018-0.38,0.356-0.172,0.529l1.221,1.015l-0.391,1.539c-0.067,0.262,0.221,0.471,0.45,0.327l1.342-0.847
					l1.342,0.847c0.229,0.145,0.517-0.065,0.45-0.327l-0.391-1.539l1.221-1.015C336.094,335.867,335.984,335.529,335.714,335.511z"
					/>
				<path style="fill:#FF95FB;" d="M344.408,335.511l-1.584-0.104l-0.588-1.475c-0.1-0.251-0.456-0.251-0.556,0l-0.588,1.475
					l-1.584,0.104c-0.27,0.018-0.38,0.356-0.172,0.529l1.221,1.015l-0.391,1.539c-0.067,0.262,0.221,0.471,0.45,0.327l1.342-0.847
					l1.342,0.847c0.229,0.145,0.517-0.065,0.45-0.327l-0.391-1.539l1.221-1.015C344.788,335.867,344.678,335.529,344.408,335.511z"
					/>
				<path style="fill:#303030;" d="M353.103,335.511l-1.584-0.104l-0.588-1.475c-0.1-0.251-0.456-0.251-0.556,0l-0.588,1.475
					l-1.584,0.104c-0.27,0.018-0.38,0.356-0.172,0.529l1.221,1.015l-0.391,1.539c-0.067,0.262,0.221,0.471,0.45,0.327l1.342-0.847
					l1.342,0.847c0.229,0.145,0.517-0.065,0.45-0.327l-0.391-1.539l1.221-1.015C353.483,335.867,353.372,335.529,353.103,335.511z"
					/>
				<path style="fill:#303030;" d="M361.797,335.511l-1.584-0.104l-0.588-1.475c-0.1-0.251-0.456-0.251-0.556,0l-0.588,1.475
					l-1.584,0.104c-0.27,0.018-0.38,0.356-0.172,0.529l1.221,1.015l-0.391,1.539c-0.067,0.262,0.221,0.471,0.45,0.327l1.342-0.847
					l1.342,0.847c0.229,0.145,0.517-0.065,0.45-0.327l-0.391-1.539l1.221-1.015C362.177,335.867,362.067,335.529,361.797,335.511z"
					/>
				
					<line style="fill:#FFFFFF;stroke:#00826F;stroke-width:1.5;stroke-linecap:round;stroke-linejoin:round;stroke-miterlimit:10;" x1="322.916" y1="345.121" x2="406.339" y2="345.121"/>
				
					<line style="fill:#FFFFFF;stroke:#00826F;stroke-width:1.5;stroke-linecap:round;stroke-linejoin:round;stroke-miterlimit:10;" x1="322.916" y1="351.275" x2="373.276" y2="351.275"/>
				<path style="fill:#00826F;" d="M325.41,355.128c-1.972,0-3.57,1.598-3.57,3.57c0,2.046,1.666,3.786,3.57,5.046
					c1.85-1.17,3.57-3,3.57-5.046C328.98,356.726,327.382,355.128,325.41,355.128z M325.41,360.558c-1.086,0-1.966-0.88-1.966-1.966
					s0.88-1.966,1.966-1.966c1.086,0,1.966,0.88,1.966,1.966S326.496,360.558,325.41,360.558z"/>
				
					<line style="fill:#FFFFFF;stroke:#00826F;stroke-width:1.5;stroke-linecap:round;stroke-linejoin:round;stroke-miterlimit:10;" x1="332.187" y1="359.436" x2="367.622" y2="359.436"/>
				<path style="fill:#F55571;" d="M410.352,363.745h-28.895c-1.505,0-2.724-1.22-2.724-2.724v-3.168
					c0-1.505,1.22-2.724,2.724-2.724h28.895c1.505,0,2.724,1.22,2.724,2.724v3.168C413.077,362.525,411.857,363.745,410.352,363.745
					z"/>
				<g>
					
						<path style="fill:#FFFFFF;stroke:#00826F;stroke-width:1.5;stroke-linecap:round;stroke-linejoin:round;stroke-miterlimit:10;" d="
						M308.813,363.745h-30.32c-2.219,0-4.018-1.799-4.018-4.018v-30.32c0-2.219,1.799-4.018,4.018-4.018h30.32
						c2.219,0,4.018,1.799,4.018,4.018v30.32C312.831,361.946,311.032,363.745,308.813,363.745z"/>
					<g>
						
							<line style="fill:#FFFFFF;stroke:#00826F;stroke-width:1.5;stroke-linecap:round;stroke-linejoin:round;stroke-miterlimit:10;" x1="280.134" y1="356.626" x2="307.173" y2="356.626"/>
						
							<rect x="282.877" y="331.667" style="fill:#FFFFFF;stroke:#00826F;stroke-width:1.5;stroke-linecap:round;stroke-linejoin:round;stroke-miterlimit:10;" width="21.553" height="24.96"/>
						
							<line style="fill:#FFFFFF;stroke:#00826F;stroke-width:1.5;stroke-linecap:round;stroke-linejoin:round;stroke-miterlimit:10;" x1="280.134" y1="348.434" x2="307.173" y2="348.434"/>
						<rect x="291.909" y="350.847" style="fill:#00826F;" width="3.489" height="5.779"/>
						<rect x="298.123" y="350.847" style="fill:#00826F;" width="3.489" height="2.577"/>
						
							<rect x="285.695" y="350.847" transform="matrix(-1 -1.224647e-16 1.224647e-16 -1 574.879 704.2717)" style="fill:#00826F;" width="3.489" height="2.577"/>
						<g>
							<rect x="298.123" y="343.176" style="fill:#00826F;" width="3.489" height="2.577"/>
							
								<rect x="285.695" y="343.176" transform="matrix(-1 -1.224647e-16 1.224647e-16 -1 574.879 688.93)" style="fill:#00826F;" width="3.489" height="2.577"/>
							
								<rect x="291.909" y="343.176" transform="matrix(-1 -1.224647e-16 1.224647e-16 -1 587.3069 688.93)" style="fill:#00826F;" width="3.489" height="2.577"/>
							<rect x="298.123" y="338.725" style="fill:#00826F;" width="3.489" height="2.577"/>
							
								<rect x="285.695" y="338.725" transform="matrix(-1 -1.224647e-16 1.224647e-16 -1 574.879 680.0272)" style="fill:#00826F;" width="3.489" height="2.577"/>
							
								<rect x="291.909" y="338.725" transform="matrix(-1 -1.224647e-16 1.224647e-16 -1 587.3069 680.0272)" style="fill:#00826F;" width="3.489" height="2.577"/>
							<rect x="298.123" y="334.145" style="fill:#00826F;" width="3.489" height="2.577"/>
							
								<rect x="285.695" y="334.145" transform="matrix(-1 -1.224647e-16 1.224647e-16 -1 574.879 670.8664)" style="fill:#00826F;" width="3.489" height="2.577"/>
							
								<rect x="291.909" y="334.145" transform="matrix(-1 -1.224647e-16 1.224647e-16 -1 587.3069 670.8664)" style="fill:#00826F;" width="3.489" height="2.577"/>
						</g>
					</g>
				</g>
			</g>
		</g>
		<g>
			
				<path style="fill:#FFFFFF;stroke:#F55571;stroke-width:1.5;stroke-linecap:round;stroke-linejoin:round;stroke-miterlimit:10;" d="
				M414.203,434.537H273.349c-3.262,0-5.907-2.645-5.907-5.907v-40.056c0-3.262,2.645-5.907,5.907-5.907h140.855
				c3.262,0,5.907,2.645,5.907,5.907v40.056C420.11,431.893,417.466,434.537,414.203,434.537z"/>
			<g>
				<path style="fill:#00826F;" d="M368.74,393.806h-45.311c-1.017,0-1.842-0.825-1.842-1.842l0,0c0-1.017,0.825-1.842,1.842-1.842
					h45.311c1.017,0,1.842,0.825,1.842,1.842l0,0C370.582,392.981,369.757,393.806,368.74,393.806z"/>
				<path style="fill:#FF95FB;" d="M327.02,399.547l-1.584-0.104l-0.588-1.474c-0.1-0.251-0.456-0.251-0.556,0l-0.588,1.474
					l-1.584,0.104c-0.27,0.018-0.38,0.356-0.172,0.529l1.221,1.015l-0.391,1.538c-0.067,0.262,0.221,0.471,0.45,0.327l1.342-0.847
					l1.342,0.847c0.229,0.144,0.517-0.065,0.45-0.327l-0.391-1.538l1.221-1.015C327.4,399.903,327.29,399.565,327.02,399.547z"/>
				<path style="fill:#FF95FB;" d="M335.714,399.547l-1.584-0.104l-0.588-1.474c-0.1-0.251-0.456-0.251-0.556,0l-0.588,1.474
					l-1.584,0.104c-0.27,0.018-0.38,0.356-0.172,0.529l1.221,1.015l-0.391,1.538c-0.067,0.262,0.221,0.471,0.45,0.327l1.342-0.847
					l1.342,0.847c0.229,0.144,0.517-0.065,0.45-0.327l-0.391-1.538l1.221-1.015C336.094,399.903,335.984,399.565,335.714,399.547z"
					/>
				<path style="fill:#FF95FB;" d="M344.408,399.547l-1.584-0.104l-0.588-1.474c-0.1-0.251-0.456-0.251-0.556,0l-0.588,1.474
					l-1.584,0.104c-0.27,0.018-0.38,0.356-0.172,0.529l1.221,1.015l-0.391,1.538c-0.067,0.262,0.221,0.471,0.45,0.327l1.342-0.847
					l1.342,0.847c0.229,0.144,0.517-0.065,0.45-0.327l-0.391-1.538l1.221-1.015C344.788,399.903,344.678,399.565,344.408,399.547z"
					/>
				<path style="fill:#FF95FB;" d="M353.103,399.547l-1.584-0.104l-0.588-1.474c-0.1-0.251-0.456-0.251-0.556,0l-0.588,1.474
					l-1.584,0.104c-0.27,0.018-0.38,0.356-0.172,0.529l1.221,1.015l-0.391,1.538c-0.067,0.262,0.221,0.471,0.45,0.327l1.342-0.847
					l1.342,0.847c0.229,0.144,0.517-0.065,0.45-0.327l-0.391-1.538l1.221-1.015C353.483,399.903,353.372,399.565,353.103,399.547z"
					/>
				<path style="fill:#303030;" d="M361.797,399.547l-1.584-0.104l-0.588-1.474c-0.1-0.251-0.456-0.251-0.556,0l-0.588,1.474
					l-1.584,0.104c-0.27,0.018-0.38,0.356-0.172,0.529l1.221,1.015l-0.391,1.538c-0.067,0.262,0.221,0.471,0.45,0.327l1.342-0.847
					l1.342,0.847c0.229,0.144,0.517-0.065,0.45-0.327l-0.391-1.538l1.221-1.015C362.177,399.903,362.067,399.565,361.797,399.547z"
					/>
				
					<line style="fill:#FFFFFF;stroke:#00826F;stroke-width:1.5;stroke-linecap:round;stroke-linejoin:round;stroke-miterlimit:10;" x1="322.916" y1="409.157" x2="406.339" y2="409.157"/>
				
					<line style="fill:#FFFFFF;stroke:#00826F;stroke-width:1.5;stroke-linecap:round;stroke-linejoin:round;stroke-miterlimit:10;" x1="322.916" y1="415.311" x2="373.276" y2="415.311"/>
				<path style="fill:#00826F;" d="M325.41,419.164c-1.972,0-3.57,1.598-3.57,3.57c0,2.046,1.666,3.786,3.57,5.046
					c1.85-1.17,3.57-3,3.57-5.046C328.98,420.762,327.382,419.164,325.41,419.164z M325.41,424.594c-1.086,0-1.966-0.88-1.966-1.966
					c0-1.086,0.88-1.966,1.966-1.966c1.086,0,1.966,0.88,1.966,1.966C327.376,423.714,326.496,424.594,325.41,424.594z"/>
				
					<line style="fill:#FFFFFF;stroke:#00826F;stroke-width:1.5;stroke-linecap:round;stroke-linejoin:round;stroke-miterlimit:10;" x1="332.187" y1="423.472" x2="367.622" y2="423.472"/>
				<path style="fill:#F55571;" d="M410.352,427.781h-28.895c-1.505,0-2.724-1.22-2.724-2.724v-3.168
					c0-1.505,1.22-2.724,2.724-2.724h28.895c1.505,0,2.724,1.22,2.724,2.724v3.168C413.077,426.561,411.857,427.781,410.352,427.781
					z"/>
				<g>
					
						<path style="fill:#FFFFFF;stroke:#00826F;stroke-width:1.5;stroke-linecap:round;stroke-linejoin:round;stroke-miterlimit:10;" d="
						M308.813,427.781h-30.32c-2.219,0-4.018-1.799-4.018-4.018v-30.32c0-2.219,1.799-4.018,4.018-4.018h30.32
						c2.219,0,4.018,1.799,4.018,4.018v30.32C312.831,425.982,311.032,427.781,308.813,427.781z"/>
					<g>
						
							<line style="fill:#FFFFFF;stroke:#00826F;stroke-width:1.5;stroke-linecap:round;stroke-linejoin:round;stroke-miterlimit:10;" x1="280.134" y1="420.662" x2="307.173" y2="420.662"/>
						
							<rect x="282.877" y="395.703" style="fill:#FFFFFF;stroke:#00826F;stroke-width:1.5;stroke-linecap:round;stroke-linejoin:round;stroke-miterlimit:10;" width="21.553" height="24.96"/>
						
							<line style="fill:#FFFFFF;stroke:#00826F;stroke-width:1.5;stroke-linecap:round;stroke-linejoin:round;stroke-miterlimit:10;" x1="280.134" y1="412.47" x2="307.173" y2="412.47"/>
						<rect x="291.909" y="414.883" style="fill:#00826F;" width="3.489" height="5.779"/>
						<rect x="298.123" y="414.883" style="fill:#00826F;" width="3.489" height="2.577"/>
						
							<rect x="285.695" y="414.883" transform="matrix(-1 -1.224647e-16 1.224647e-16 -1 574.879 832.3436)" style="fill:#00826F;" width="3.489" height="2.577"/>
						<g>
							<rect x="298.123" y="407.212" style="fill:#00826F;" width="3.489" height="2.577"/>
							
								<rect x="285.695" y="407.212" transform="matrix(-1 -1.224647e-16 1.224647e-16 -1 574.879 817.0019)" style="fill:#00826F;" width="3.489" height="2.577"/>
							
								<rect x="291.909" y="407.212" transform="matrix(-1 -1.224647e-16 1.224647e-16 -1 587.3069 817.0019)" style="fill:#00826F;" width="3.489" height="2.577"/>
							<rect x="298.123" y="402.761" style="fill:#00826F;" width="3.489" height="2.577"/>
							
								<rect x="285.695" y="402.761" transform="matrix(-1 -1.224647e-16 1.224647e-16 -1 574.879 808.099)" style="fill:#00826F;" width="3.489" height="2.577"/>
							
								<rect x="291.909" y="402.761" transform="matrix(-1 -1.224647e-16 1.224647e-16 -1 587.3069 808.099)" style="fill:#00826F;" width="3.489" height="2.577"/>
							<rect x="298.123" y="398.181" style="fill:#00826F;" width="3.489" height="2.577"/>
							
								<rect x="285.695" y="398.181" transform="matrix(-1 -1.224647e-16 1.224647e-16 -1 574.879 798.9383)" style="fill:#00826F;" width="3.489" height="2.577"/>
							
								<rect x="291.909" y="398.181" transform="matrix(-1 -1.224647e-16 1.224647e-16 -1 587.3069 798.9383)" style="fill:#00826F;" width="3.489" height="2.577"/>
						</g>
					</g>
				</g>
			</g>
		</g>
	</g>
</g>
<g id="Speech_Bubble">
	<g id="Speech_Bubble_00000103971595013613413970000017696006499979475843_">
		
			<path id="Speech_Bubble_00000134965133084041090460000013802509586052114058_" style="fill:#FFFFFF;stroke:#303030;stroke-width:1.5;stroke-linecap:round;stroke-linejoin:round;stroke-miterlimit:10;" d="
			M231.307,37.644c-13.015-8.632-26.634-5.298-35.141,0.344c-9.261,6.142-18.838,22.472-4.524,37.556
			c-0.606,3.18-3.645,5.33-6.201,5.934c-1.299,0.307-0.038,1.785,4.304,1.962c3.951,0.161,6.906-0.663,10.282-2.798
			c9.203,4.977,31.38,5.436,40.075-7.966C245.688,64.068,246.2,47.522,231.307,37.644z"/>
		<path style="fill:#FF95FB;" d="M229.004,47.695c-1.686-1.686-4.419-1.686-6.106,0l-11.702,11.702l-4.494-4.494
			c-1.686-1.686-4.419-1.686-6.105,0c-1.686,1.686-1.686,4.42,0,6.105l10.6,10.6l17.808-17.808
			C230.69,52.115,230.69,49.381,229.004,47.695z"/>
	</g>
</g>
<g id="Character">
	<g id="Luggage_00000091713923035575303560000012021312247283589819_">
		<g>
			<path style="fill:none;stroke:#303030;stroke-width:1.5;stroke-linecap:round;stroke-linejoin:round;stroke-miterlimit:10;" d="
				M138.424,295.59H70.898V190.691c0-3.129,2.537-5.666,5.666-5.666h56.195c3.129,0,5.666,2.537,5.666,5.666V295.59z"/>
			<path style="fill:#F55571;" d="M83.286,183.862v3.232c0,1.073,0.729,2.009,1.77,2.271l2.504,0.631
				c1.84,0.464,3.767,0.464,5.608,0l1.072-0.27c2.092-0.527,4.29-0.454,6.342,0.211l0.399,0.129
				c2.338,0.758,4.843,0.699,7.188-0.035c2.269-0.71,4.704-0.699,6.967,0.035l0.068,0.022c2.26,0.732,4.691,0.745,6.958,0.038
				l2.228-0.695c0.979-0.305,1.645-1.211,1.645-2.236v-3.334c0-1.294-1.049-2.342-2.342-2.342H85.628
				C84.335,181.519,83.286,182.568,83.286,183.862z"/>
		</g>
		<g>
			<path style="fill:#303030;" d="M148.73,454.562H68.597c-6.424,0-11.632-5.208-11.632-11.633V303.39
				c0-6.424,5.208-11.633,11.632-11.633h80.133c6.424,0,11.633,5.208,11.633,11.633v139.539
				C160.362,449.354,155.154,454.562,148.73,454.562z"/>
			<path style="fill:#00826F;" d="M174.29,454.562H94.158c-6.424,0-11.632-5.208-11.632-11.633V303.39
				c0-6.424,5.208-11.633,11.632-11.633h80.133c6.424,0,11.633,5.208,11.633,11.633v139.539
				C185.923,449.354,180.715,454.562,174.29,454.562z"/>
			<g>
				<path style="fill:#303030;" d="M113.244,311.694v124.93c0,4.24-3.44,7.68-7.68,7.68h-4.74c4.24,0,7.68-3.44,7.68-7.68v-124.93
					c0-4.24-3.44-7.68-7.68-7.68h4.74C109.804,304.014,113.244,307.454,113.244,311.694z"/>
				<path style="fill:#303030;" d="M144.324,311.694v124.93c0,4.24-3.44,7.68-7.68,7.68h-4.74c4.24,0,7.67-3.44,7.67-7.68v-124.93
					c0-4.24-3.43-7.68-7.67-7.68h4.74C140.884,304.014,144.324,307.454,144.324,311.694z"/>
				<path style="fill:#303030;" d="M175.404,311.694v124.93c0,4.24-3.44,7.68-7.68,7.68h-4.75c4.25,0,7.68-3.44,7.68-7.68v-124.93
					c0-4.24-3.43-7.68-7.68-7.68h4.75C171.964,304.014,175.404,307.454,175.404,311.694z"/>
			</g>
			<g>
				<path style="fill:none;stroke:#303030;stroke-width:1.5;stroke-linecap:round;stroke-linejoin:round;stroke-miterlimit:10;" d="
					M105.562,444.302h-4.834c-4.241,0-7.679-3.438-7.679-7.679V311.698c0-4.241,3.438-7.679,7.679-7.679h4.834
					c4.241,0,7.679,3.438,7.679,7.679v124.925C113.241,440.864,109.803,444.302,105.562,444.302z"/>
				<path style="fill:none;stroke:#303030;stroke-width:1.5;stroke-linecap:round;stroke-linejoin:round;stroke-miterlimit:10;" d="
					M136.641,444.302h-4.834c-4.241,0-7.679-3.438-7.679-7.679V311.698c0-4.241,3.438-7.679,7.679-7.679h4.834
					c4.241,0,7.679,3.438,7.679,7.679v124.925C144.32,440.864,140.882,444.302,136.641,444.302z"/>
				<path style="fill:none;stroke:#303030;stroke-width:1.5;stroke-linecap:round;stroke-linejoin:round;stroke-miterlimit:10;" d="
					M167.721,444.302h-4.834c-4.241,0-7.679-3.438-7.679-7.679V311.698c0-4.241,3.438-7.679,7.679-7.679h4.834
					c4.241,0,7.679,3.438,7.679,7.679v124.925C175.4,440.864,171.962,444.302,167.721,444.302z"/>
			</g>
		</g>
		<g>
			
				<circle style="fill:#FFFFFF;stroke:#303030;stroke-width:1.5;stroke-linecap:round;stroke-linejoin:round;stroke-miterlimit:10;" cx="58.854" cy="440.932" r="12.78"/>
			<path style="fill:#303030;" d="M63.254,440.932c0,2.43-1.97,4.4-4.4,4.4s-4.4-1.97-4.4-4.4s1.97-4.4,4.4-4.4
				S63.254,438.502,63.254,440.932z"/>
		</g>
	</g>
	<g id="Character_00000013176019007527993770000004147278713994461102_">
		<g id="Legs_00000011006966674870578730000013292495177103341464_">
			<g>
				<g>
					<path style="fill:#AD6163;" d="M255.086,441.113c1.257,1.821,3.321,5.315,1.356,8.46c-0.822,1.315-5.423,4.785-14.4,1.793
						c-5.399-1.8-10.421-2.44-16.399-9.128c-6.487-7.259-11.735-17.109-18.919-23.68c-2.533-2.317-7.511-6.897-9.489-9.703
						c-1.597-2.266-2.564-5.395-1.397-8.941c1.72-5.225,7.68-9.283,11.408-13.328c2.916-3.164,3.833-7.586,4.336-11.391
						c0.419-3.172,1.603-19.613,2.715-27.604c1.148-8.243,3.122-18.562,5.933-26.445c3.357-9.413,7.483-15.947,7.483-15.947
						s-4.705-1.263-21.622-5.073c-31.177-7.022-63.266-12.309-79.226-30.219c-14.259-16.002-11.188-36.563-10.775-46.227h64.184
						c29.399,13.402,70.348,36.085,81.014,44.453c10.449,8.197,17.073,16.27,11.911,34.714c-2.216,7.918-5.663,16.997-19.409,48.318
						c-3.404,7.756-5.872,15.184-8.583,23.208c-3.258,9.645-7.526,18.182-7.206,27.986c0.108,3.306,3.502,17.683,8.283,24.716
						C248.253,429.973,252.854,437.879,255.086,441.113z"/>
				</g>
				<path style="fill:none;stroke:#303030;stroke-width:1.5;stroke-linecap:round;stroke-linejoin:round;stroke-miterlimit:10;" d="
					M237.119,302.266c-3.217,1.493-6.06,2.286-9.405,2.934"/>
				
					<path style="fill:#FFFFFF;stroke:#303030;stroke-width:1.5;stroke-linecap:round;stroke-linejoin:round;stroke-miterlimit:10;" d="
					M212.301,362.881c-1.529-0.039-2.521,0.602-2.904,5.141c-0.197,2.333-0.371,5.833-1.805,9.388
					c-1.685,4.177-6.502,7.53-13.458,13.785c-5.927,5.33-2.657,12.043,1.66,17.747c4.317,5.704,10.709,8.831,13.464,12.696
					c2.755,3.864,8.63,11.849,11.327,16.074c2.697,4.224,10.026,12.422,20.495,15.42c6.198,1.775,13.077,0.929,15.008-1.006
					s3.716-6.163-0.843-11.993c-4.559-5.83-9.608-14.957-11.305-19.724c-3.926-11.029-5.239-19.471-4.174-24.705
					c1.065-5.233,2.492-8.014,3.77-11.313c1.278-3.298,4.558-8.174,1.697-9.592l-1.704,2.943c0,0-5.866,2.639-18.493-1.299
					c-12.628-3.938-13.049-10.493-13.049-10.493L212.301,362.881z"/>
				<g>
					
						<path style="fill:none;stroke:#303030;stroke-width:1.5;stroke-linecap:round;stroke-linejoin:round;stroke-miterlimit:10;" d="
						M253.862,457.75c4.629-5.268,4.656-9.486-0.908-18.703c-3.385-5.608-5.029-9.137-6.758-15.205
						c-1.225-4.297-2.294-10.64-3.098-16.196"/>
					<g>
						<path style="fill:#F55571;" d="M252.954,439.047c-3.385-5.608-5.029-9.138-6.758-15.205
							c-2.004-7.029-3.849-21.313-4.213-24.629c-0.473-4.318-6.751-9.834-13.672-8.534c-0.559-1.415-1.27-2.8-2.516-3.639
							c-1.186-0.799-2.665-0.969-4.08-1.118c-2.628-0.275-7.301,0.156-10.644-3.343c-3.318-3.473-4.288-5.22-4.288-5.22
							c0.447-0.94,0.991-2.627,1.187-4.003c-2.495-1.089-4.328,0.331-5.722,2.316c-1.393,1.986-1.617,3.768-4.225,5.981
							c-2.407,2.041-4.617,3.429-10.753,9.742c-3.133,4.333,0.052,8.801,6.025,14.631c7.684,7.5,33.644,32.839,33.644,32.839
							c5.509,5.377,14.04,13.704,17.367,16.951c3.327,3.247,8.505,3.126,9.555,1.93C258.49,452.482,258.518,448.264,252.954,439.047
							z"/>
					</g>
					
						<path style="fill:none;stroke:#303030;stroke-width:1.5;stroke-linecap:round;stroke-linejoin:round;stroke-miterlimit:10;" d="
						M233.432,424.451c5.048-0.66,12.508,1.328,15.386,6.859"/>
					
						<path style="fill:none;stroke:#303030;stroke-width:1.5;stroke-linecap:round;stroke-linejoin:round;stroke-miterlimit:10;" d="
						M245.365,420.506c-3.078-0.883-5.562-0.601-9.113,0.3"/>
					
						<path style="fill:none;stroke:#303030;stroke-width:1.5;stroke-linecap:round;stroke-linejoin:round;stroke-miterlimit:10;" d="
						M246.195,423.842c-2.486-2.643-6.876-5.49-14.077-10.508"/>
					
						<path style="fill:none;stroke:#303030;stroke-width:1.5;stroke-linecap:round;stroke-linejoin:round;stroke-miterlimit:10;" d="
						M243.537,412.145c-3.078-0.883-5.107-0.714-8.658,0.187"/>
					
						<path style="fill:none;stroke:#303030;stroke-width:1.5;stroke-linecap:round;stroke-linejoin:round;stroke-miterlimit:10;" d="
						M244.367,415.482c-2.486-2.643-6.876-5.49-14.077-10.508"/>
					
						<path style="fill:none;stroke:#303030;stroke-width:1.5;stroke-linecap:round;stroke-linejoin:round;stroke-miterlimit:10;" d="
						M242.343,403.352c-3.078-0.883-6.197-0.168-9.748,0.733"/>
					
						<path style="fill:none;stroke:#303030;stroke-width:1.5;stroke-linecap:round;stroke-linejoin:round;stroke-miterlimit:10;" d="
						M242.538,407.121c-2.486-2.643-6.876-5.49-14.077-10.508"/>
					
						<path style="fill:none;stroke:#303030;stroke-width:1.5;stroke-linecap:round;stroke-linejoin:round;stroke-miterlimit:10;" d="
						M199.67,379.892c-0.206,1.374-0.168,3.349,0.304,4.74c0.944,2.783,3.011,5.181,5.628,6.53c4.122,2.125,9.333,1.678,13.079,4.42
						c2.725,1.995,4.123,5.292,5.273,8.458c2.124,5.851,4.894,15.603,4.509,17.621c-0.384,2.017-3.462,6.493-6.428,10.806"/>
					
						<path style="fill:#FFFFFF;stroke:#303030;stroke-width:1.5;stroke-linecap:round;stroke-linejoin:round;stroke-miterlimit:10;" d="
						M244.169,463.108c-3.724-2.101-19.957-18.163-19.957-18.163s-27.178-26.528-33.395-32.596
						c-6.217-6.068-9.336-9.492-8.81-13.201c0.31-2.187,1.796-4.738,5.263-7.75c0.39,4.766-0.892,4.759,9.73,15.127
						c10.622,10.368,36.466,35.752,42.176,41.168c3.977,3.772,9.564,10.24,14.685,10.058
						C253.598,459.875,249.849,466.312,244.169,463.108z"/>
				</g>
			</g>
			<g>
				<g>
					<path style="fill:#AD6163;" d="M259.351,454.688c-4.882,0.024-11.117-0.091-14.791-3.605c-2.84-2.715-2.177-7.914-1.758-10.247
						c0.759-4.225,0.929-6.971,0.898-10.48c-0.04-4.485-4.367-9.134-7.713-11.617c-6.441-4.781-23.119-16.512-30.3-23.088
						c-9.97-9.13-14.992-15.908-21.485-27.997c-8-14.896-8.341-21.703-20.915-32.921c-19.912-17.763-63.135-36.65-69.7-67.104
						c-5.187-24.062-3.525-43.95-3.525-43.95h83.216c3.492,19.103-8.616,34.041-8.616,34.041s39.816,46.961,49.739,63.549
						c10.331,17.272,43.512,71.553,50.722,82.549c6.173,9.414,12.086,15.563,19.476,21.97c9.675,8.389,14.357,10.021,26.244,14.785
						c5.032,2.016,13.275,3.893,14.975,6.307c2.878,4.083-3.982,11.942-12.667,13.653c-8.659,1.706-16.806,2.134-24.953,0.053
						C275.066,457.235,272.433,454.623,259.351,454.688z"/>
				</g>
				<g>
					
						<path style="fill:#FFFFFF;stroke:#303030;stroke-width:1.5;stroke-linecap:round;stroke-linejoin:round;stroke-miterlimit:10;" d="
						M226.428,412.47c-1.175,2.344,1.177,4.29,4.708,6.694c2.892,1.969,4.091,2.734,5.427,4.308
						c2.146,2.529,2.85,5.652,3.204,11.065c0.099,1.506,2.593,6.244,2.4,8.773c-0.193,2.529-0.355,5.939,2.615,8.5
						c2.97,2.561,8.883,3.649,13.038,3.411c4.155-0.238,12.581,0.52,15.466,1.465c2.885,0.945,16.344,5.73,24.528,5.841
						c8.184,0.111,15.886-0.551,21.962-4.036c6.076-3.485,7.101-7.482,7.169-9.427c0.068-1.945-0.743-3.983-6.315-5.754
						c-5.572-1.771-15.384-5.227-21.271-8.264c-5.887-3.037-14.322-9.071-20.294-14.832c-5.971-5.761-8.107-11.389-9.799-14.875
						c-1.692-3.486-2.691-9.381-7.794-8.378l1.597,3.097c0,0-3.445,6.218-14.217,10.636c-13.36,5.479-18.147,4.191-18.147,4.191
						L226.428,412.47z"/>
				</g>
				<g>
					<g>
						<path style="fill:#F55571;" d="M318.033,439.085c-6.621-1.771-10.421-3.239-16.127-6.558
							c-6.611-3.845-18.366-13.273-21.046-15.51c-3.49-2.912-12.225-2.514-16.499,3.487c-1.449-0.661-2.989-1.189-4.537-0.918
							c-1.473,0.259-2.713,1.203-3.887,2.118c-2.181,1.7-5.391,5.415-10.45,5.203c-5.021-0.211-7.786-0.927-7.786-0.927
							c-0.563-1.113-1.385-2.044-2.823-3.331c-1.675,0.832-1.443,2.944-1.052,5.452c0.391,2.508,1.515,4.014,1.154,7.574
							c-0.333,3.285-0.992,5.935-1.037,15.147c0.782,5.54,6.425,6.597,15.159,6.658c11.234,0.079,49.191,0.344,49.191,0.344
							c8.055,0.056,20.528,0.144,25.392,0.178c4.864,0.034,8.679-3.815,8.604-5.478
							C331.955,445.196,328.916,441.996,318.033,439.085z"/>
					</g>
					<g>
						<g>
							<path style="fill:#303030;" d="M234.737,421.352c-0.897,0.682-1.658,1.513-1.922,2.64c-0.235,1.001-0.091,2.024,0.073,3.023
								c0.173,1.058,0.349,2.104,0.642,3.137c0.286,1.006,0.607,2.011,0.714,3.056c0.168,1.623-0.095,3.248-0.301,4.856
								c-0.187,1.457-0.349,2.915-0.46,4.38c-0.211,2.787-0.274,5.584-0.29,8.379c-0.005,0.965,1.495,0.966,1.5,0
								c0.022-4.011,0.162-8.02,0.655-12.003c0.153-1.236,0.354-2.474,0.429-3.718c0.07-1.149-0.028-2.3-0.277-3.423
								c-0.211-0.951-0.535-1.872-0.76-2.819c-0.259-1.089-0.482-2.258-0.542-3.377c-0.064-1.189,0.337-2.106,1.296-2.835
								C236.252,422.07,235.506,420.767,234.737,421.352L234.737,421.352z"/>
						</g>
					</g>
					
						<path style="fill:none;stroke:#303030;stroke-width:1.5;stroke-linecap:round;stroke-linejoin:round;stroke-miterlimit:10;" d="
						M292.726,442.246c3.326-4.16,10.393-8.075,16.576-5.994"/>
					
						<path style="fill:none;stroke:#303030;stroke-width:1.5;stroke-linecap:round;stroke-linejoin:round;stroke-miterlimit:10;" d="
						M298.859,430.613c-2.961,1.568-4.629,3.583-6.653,6.839"/>
					
						<path style="fill:none;stroke:#303030;stroke-width:1.5;stroke-linecap:round;stroke-linejoin:round;stroke-miterlimit:10;" d="
						M301.906,432.526c-3.792-0.189-9.167,0.851-18.236,2.292"/>
					
						<path style="fill:none;stroke:#303030;stroke-width:1.5;stroke-linecap:round;stroke-linejoin:round;stroke-miterlimit:10;" d="
						M291.414,425.638c-2.961,1.568-4.368,3.167-6.392,6.423"/>
					
						<path style="fill:none;stroke:#303030;stroke-width:1.5;stroke-linecap:round;stroke-linejoin:round;stroke-miterlimit:10;" d="
						M294.461,427.551c-3.792-0.189-9.167,0.851-18.236,2.293"/>
					
						<path style="fill:none;stroke:#303030;stroke-width:1.5;stroke-linecap:round;stroke-linejoin:round;stroke-miterlimit:10;" d="
						M284.134,419.875c-2.961,1.568-4.793,4.37-6.817,7.626"/>
					
						<path style="fill:none;stroke:#303030;stroke-width:1.5;stroke-linecap:round;stroke-linejoin:round;stroke-miterlimit:10;" d="
						M287.016,422.575c-3.792-0.189-9.167,0.851-18.236,2.292"/>
					
						<path style="fill:none;stroke:#303030;stroke-width:1.5;stroke-linecap:round;stroke-linejoin:round;stroke-miterlimit:10;" d="
						M234.943,433.153c0.841,1.185,2.303,2.647,3.669,3.353c2.731,1.413,6.029,1.721,8.981,0.839
						c4.65-1.389,8.253-5.508,13.067-6.158c3.502-0.473,6.948,0.998,10.112,2.551c5.846,2.869,15.01,8.212,16.185,10.012
						c1.174,1.8,2.101,7.407,2.995,12.811"/>
					
						<path style="fill:#FFFFFF;stroke:#303030;stroke-width:1.5;stroke-linecap:round;stroke-linejoin:round;stroke-miterlimit:10;" d="
						M329.297,463.72c-4.332,1.119-28.224,0.788-28.224,0.788s-39.736-0.278-48.826-0.341c-9.09-0.064-13.925-0.381-16.22-3.559
						c-1.353-1.874-2.932-4.875-2.503-9.662c3.752,3.31,3.628,4.235,19.159,4.344c15.531,0.109,53.432,0.492,61.666,0.431
						c5.734-0.042,14.64,0.78,18.368-3.073C334.06,454.441,335.904,462.014,329.297,463.72z"/>
				</g>
			</g>
			<g>
				<path style="fill:#303030;" d="M181.311,222.058H85.292c1.469,16.857,3.153,39.219,8.489,53.097
					c7.517,19.552,21.277,29.746,37.303,40.384c12.175,8.082,30.418,19.084,36.792,26.851s7.816,14.236,14.741,28.111
					c5.754,11.529,17.437,23.746,34.94,35.861c28.193-7.374,33.728-25.656,33.728-25.656s-23.121-39.112-31.673-52.779
					c-8.553-13.667-11.337-18.355-19.655-28.367l25.539,6.904c-6.423,10.885-11.117,26.986-12.417,46.959
					c8.34,6.278,25.281,11.496,36.488,10.32c0,0,12.51-29.324,18.505-43.398c5.995-14.074,13.769-34.287-1.433-48.95
					C243.098,248.693,181.311,222.058,181.311,222.058z"/>
				<g>
					
						<path style="fill:none;stroke:#FFFFFF;stroke-width:1.5;stroke-linecap:round;stroke-linejoin:round;stroke-miterlimit:10;" d="
						M184.451,280.429c30.576,10.834,48.665,17.28,50.053,19.28c1.774,2.557-8.416,11.752-11.533,31.958"/>
					
						<path style="fill:none;stroke:#FFFFFF;stroke-width:1.5;stroke-linecap:round;stroke-linejoin:round;stroke-miterlimit:10;" d="
						M225.495,306.465c6.508-7.015,15.291-10.004,21.565-9.944"/>
					
						<path style="fill:none;stroke:#FFFFFF;stroke-width:1.5;stroke-linecap:round;stroke-linejoin:round;stroke-miterlimit:10;" d="
						M209.41,400.392c11.335-2.211,31.568-14.258,36.641-28.516"/>
					
						<path style="fill:none;stroke:#FFFFFF;stroke-width:1.5;stroke-linecap:round;stroke-linejoin:round;stroke-miterlimit:10;" d="
						M217.168,322.524c1.889,3.461,25.274,41.9,25.274,41.9"/>
					
						<path style="fill:none;stroke:#FFFFFF;stroke-width:1.5;stroke-linecap:round;stroke-linejoin:round;stroke-miterlimit:10;" d="
						M235.499,352.725c5.872,1.354,12.118,2.278,17.742,2.403"/>
					
						<path style="fill:none;stroke:#FFFFFF;stroke-width:1.5;stroke-linecap:round;stroke-linejoin:round;stroke-miterlimit:10;" d="
						M181.81,251.046c-3.749,4.767-7.505,6.361-12.133,8.345c-1.128,0.483-1.606,0.651-1.778,1.152
						c-0.16,0.467,0.549,1.212,0.867,1.594c7.792,9.39,24.027,27.724,33.065,38.494"/>
					
						<path style="fill:none;stroke:#FFFFFF;stroke-width:1.5;stroke-linecap:round;stroke-linejoin:round;stroke-miterlimit:10;" d="
						M99.104,226.689c-0.996,30.356,1.767,45.723,14.649,61.411c6.915,8.421,22.629,18.235,35.678,26.11
						c13.549,8.177,22.954,14.771,28.619,25.803c5.665,11.033,16.781,38.78,39.421,57.767"/>
					
						<path style="fill:none;stroke:#FFFFFF;stroke-width:1.5;stroke-linecap:round;stroke-linejoin:round;stroke-miterlimit:10;" d="
						M114.568,226.689c0,0-0.285,7.009,0,14.345c0.285,7.336,3.501,20.392-12.768,24.203"/>
				</g>
			</g>
		</g>
		<g id="Head_00000057840833319348861810000010682977682971226019_">
			<g id="Hair_00000144312759291687379680000018178021610665989037_">
				<path style="fill:#753C40;" d="M103.485,82.843c0.542,13.077,15.326,29.571,26.387,29.571c11.062,0,23.739-18.551,23.196-31.628
					c-0.543-13.077-12.082-23.218-25.774-22.65C113.602,58.704,102.942,69.766,103.485,82.843z"/>
			</g>
			<path style="fill:#303030;" d="M160.726,66.53c-1.324-1.424-3.273-2.215-5.237-2.644c0.89-1.003,1.786-2.062,2.135-3.324
				c0.64-2.442-1.621-4.52-4.24-4.363c-2.18-0.044-3.615,0.175-5.888,0.921c0.794-1.431,1.4-3.047,1.101-4.635
				c-0.299-1.587-1.764-3.069-3.484-2.99c-1.405,0.064-2.518,1.067-3.664,1.83c-4.041,2.69-9.365,2.676-14.303,3.103
				c-4.631,0.401-9.36,1.163-13.385,3.361c-4.849,2.649-7.505,7.004-6.197,11.051l10.274,2.964
				c8.799,4.486,17.899,5.357,27.917,5.193c4.846-0.08,9.965-0.529,13.903-3.173c0.815-0.547,1.58-1.2,2.035-2.037
				C162.609,70.105,162.05,67.953,160.726,66.53z"/>
			<path style="fill:#AD6163;" d="M100.989,93.606c0.425-2.78,2.77-5.158,6.586-5.37c2.93-0.162,5.824,1.513,7.802,3.564
				c1.481,1.586,2.264,1.41,2.138-2.183c-0.065-3.229-0.939-5.892-2.091-8.284c3.619-2.481,4.222-4.405,2.413-9.53
				c8.14-7.914,22.84-10.029,30.338-4.221c0,0,4.134,5.269,4.861,12.132c0.496,4.677,0.364,6.87,0.357,10.551
				c-0.006,3.032,0.433,7.926,0.815,11.228c0.708,6.125,0.167,9.482-2.549,12.565c-2.716,3.083-7.739,4.21-9.348,4.32l0.031,0.023
				l1.246,8.978l4.333,0.943c0,0,1.743,9.823-11.541,10.044c-13.284,0.221-21.861-6.898-24.167-9.095l5.233-1.401l0.759-15.325
				c-2.095-1.879-3.286-4.448-3.516-7.28c-0.229-2.832-0.496-6.13-0.496-6.13c-2.35,1.723-5.856,1.927-8.571,0.982
				C102.906,99.173,100.569,96.355,100.989,93.606z"/>
			<g>
				<g>
					<g>
						<path style="fill:#FFFFFF;" d="M141.54,86.963c0.294-1.596,1.696-2.558,3.342-2.905c1.647-0.347,4.083-0.256,4.819,2.014
							C149.384,88.493,144.198,89.874,141.54,86.963z"/>
						<path style="fill:#303030;" d="M147.614,87.314c-0.369,1.077-1.585,1.643-2.715,1.264c-1.13-0.379-1.746-1.559-1.377-2.636
							c0.369-1.077,1.585-1.643,2.715-1.264C147.366,85.057,147.983,86.237,147.614,87.314z"/>
						<polygon style="fill:#FFFFFF;" points="143.367,85.903 145.568,86.629 143.221,87.082 						"/>
						
							<path style="fill:none;stroke:#303030;stroke-width:1.5;stroke-linecap:round;stroke-linejoin:round;stroke-miterlimit:10;" d="
							M149.913,85.603c-1.254-1.569-3.21-1.734-4.857-1.387c-1.647,0.347-3.211,1.61-3.516,2.746"/>
					</g>
					
						<path style="fill:none;stroke:#303030;stroke-width:1.5;stroke-linecap:round;stroke-linejoin:round;stroke-miterlimit:10;" d="
						M141.835,76.71c3.149-0.813,7.43,0,9.816,2.144"/>
				</g>
				<g>
					<g>
						<path style="fill:#FFFFFF;" d="M124.813,88.328c0.294-1.596,1.696-2.558,3.342-2.905c1.647-0.347,4.083-0.256,4.818,2.014
							C132.657,89.858,127.471,91.24,124.813,88.328z"/>
						<path style="fill:#303030;" d="M130.886,88.68c-0.369,1.077-1.585,1.643-2.714,1.264c-1.13-0.379-1.746-1.559-1.377-2.636
							c0.369-1.077,1.585-1.643,2.714-1.265C130.639,86.423,131.256,87.603,130.886,88.68z"/>
						<polygon style="fill:#FFFFFF;" points="126.64,87.269 128.841,87.994 126.494,88.448 						"/>
						
							<path style="fill:none;stroke:#303030;stroke-width:1.5;stroke-linecap:round;stroke-linejoin:round;stroke-miterlimit:10;" d="
							M133.186,86.969c-1.254-1.569-3.211-1.733-4.857-1.387c-1.647,0.347-3.211,1.61-3.516,2.746"/>
					</g>
					
						<path style="fill:none;stroke:#303030;stroke-width:1.5;stroke-linecap:round;stroke-linejoin:round;stroke-miterlimit:10;" d="
						M120.823,82.091c1.583-2.648,5.464-4.751,8.785-4.662"/>
				</g>
				<path style="fill:none;stroke:#303030;stroke-width:1.5;stroke-linecap:round;stroke-linejoin:round;stroke-miterlimit:10;" d="
					M137.85,81.335c2.804,5.123,4.5,7.448,5.607,9.87c1.211,2.648,0.693,5.605-3.896,6.117"/>
				<g>
					<path style="fill:#303030;" d="M137.107,102.421c1.615,0.112,3.578,0.459,4.136,1.878c0.832-1.688,2.113-2.168,2.113-2.168
						s-1.527-0.87-3.196-0.717C138.491,101.567,137.107,102.421,137.107,102.421z"/>
					
						<path style="fill:#FF95FB;stroke:#303030;stroke-width:1.5;stroke-linecap:round;stroke-linejoin:round;stroke-miterlimit:10;" d="
						M134.413,103.146c0.504,0.779,2.56,2.65,5.846,2.211c0.715-0.118,0.749-0.566,0.984-1.059c-0.11-0.679-1.209-1.972-4.136-1.878
						C136.335,102.915,135.198,103.126,134.413,103.146z"/>
					<path style="fill:#FFFFFF;" d="M136.198,102.774c0,0,0.117,0.611,1.083,0.711c0.966,0.101,3.031-0.145,3.708-0.553
						c0.677-0.408,0.846-1.323,0.846-1.323s-1.29-0.431-2.143-0.173C138.84,101.693,136.495,102.687,136.198,102.774z"/>
					
						<path style="fill:none;stroke:#303030;stroke-width:1.5;stroke-linecap:round;stroke-linejoin:round;stroke-miterlimit:10;" d="
						M144.924,102.205c-1.616,0.052-3.15-0.884-4.764-0.791c-1.258,0.073-2.384,0.758-3.558,1.217
						c-1.174,0.459-2.623,0.656-3.601-0.138"/>
					
						<path style="fill:none;stroke:#303030;stroke-width:1.5;stroke-linecap:round;stroke-linejoin:round;stroke-miterlimit:10;" d="
						M143.503,102.178c-1.068,0.556-1.933,1.316-2.4,2.425c-0.076,0.18-0.195,0.616-0.843,0.755c-1.19,0.256-4.472-0.091-5.91-2.305
						"/>
				</g>
				<g>
					<g>
						<path style="fill:#303030;" d="M128.873,100.136c-0.163,0.245-0.323,0.492-0.484,0.738c-0.023,0.036-0.047,0.071-0.07,0.107
							c-0.055,0.086-0.085,0.179-0.089,0.279c-0.022,0.1-0.018,0.199,0.013,0.299c0.023,0.098,0.068,0.183,0.134,0.255
							c0.053,0.082,0.123,0.146,0.21,0.193c0.174,0.092,0.385,0.138,0.578,0.076c0.06-0.025,0.119-0.05,0.179-0.076
							c0.113-0.067,0.202-0.156,0.269-0.269c0.16-0.247,0.323-0.492,0.484-0.738c0.023-0.035,0.047-0.071,0.07-0.107
							c0.055-0.086,0.085-0.179,0.089-0.279c0.022-0.1,0.018-0.199-0.013-0.299c-0.023-0.098-0.068-0.183-0.134-0.255
							c-0.053-0.082-0.123-0.146-0.211-0.193c-0.174-0.092-0.385-0.138-0.578-0.076c-0.06,0.025-0.119,0.05-0.179,0.076
							C129.029,99.934,128.939,100.023,128.873,100.136L128.873,100.136z"/>
					</g>
				</g>
				<path style="fill:none;stroke:#303030;stroke-width:1.5;stroke-linecap:round;stroke-linejoin:round;stroke-miterlimit:10;" d="
					M104.481,93.135c0.642-0.546,2.298-1.074,4.045-0.777c1.747,0.297,3.287,1.499,3.937,3.075"/>
				<path style="fill:none;stroke:#303030;stroke-width:1.5;stroke-linecap:round;stroke-linejoin:round;stroke-miterlimit:10;" d="
					M107.564,94.711c0.474-0.399,2.173-1.46,3.999-0.684"/>
				<path style="fill:#303030;" d="M142.342,118.403c-7.486,0.712-13.044-1.245-17.207-3.611c1.176,2.578,6.23,6.608,17.803,7.906
					L142.342,118.403z"/>
			</g>
		</g>
		<g id="Arn">
			
				<path style="fill:#FFFFFF;stroke:#303030;stroke-width:1.5;stroke-linecap:round;stroke-linejoin:round;stroke-miterlimit:10;" d="
				M196.448,157.07c-4.786-15.664-11.891-21.673-27.598-24.643l-3.89,50.21l5.138,17.076c16.892,2.972,34.106-15.098,34.106-15.098
				S199.524,167.136,196.448,157.07z"/>
			<g id="Arm_00000121244248679857545480000011490573074458162566_">
				<g>
					<path style="fill:#AD6163;" d="M258.059,181.741c1.147-1.15,1.695-2.776,1.487-4.208c-0.208-1.431-0.447-2.36-1.493-2.831
						c1.058-1.144,1.24-2.082,0.938-3.39c-0.371-1.611-1.9-2.468-3.642-2.809c2.673-1.269,5.486-2.243,8.372-2.9
						c1.362-0.31,3.741-1.118,3.634-2.923c-0.071-1.192-0.565-2.201-3.306-2.568c-2.591-0.347-5.237,0.237-7.757,0.805
						c-2.57,0.58-4.977,1.458-7.434,2.409c-2.459,0.952-4.042,1.756-6.049,2.37c-1.936,0.593-2.159-0.521-1.407-2.113
						c0.959-2.028,2.963-3.956,3.296-6.174c0.06-0.401,0.211-1.434-0.092-1.887c-0.564-0.843-1.163-1.109-1.829-1.136
						c-2.01-0.082-3.936,2.672-5.075,3.765c-1.505,1.444-3.083,2.819-4.38,4.462c-1.669,2.114-3.427,5.137-4.61,7.561
						c-1.452,2.976-2.62,4.2-4.94,5.384c-0.156,0.079-0.3,0.16-0.463,0.238c-0.369,0.176-0.764,0.354-1.194,0.539
						c-3.904,1.682-10.285,3.355-18.354,6.524l-9.676,3.582c-3.352,1.248-7.032,2.696-11.047,4.433
						c-7.29,3.154-11.987,7.827-12.942,8.836c3.269,8.249,8.452,19.66,18.219,19.224c6.052-0.27,13.572-4.243,18.609-7.591
						c10.619-7.057,21.596-15.925,25.788-18.581c0.298-0.189,0.577-0.327,0.859-0.473c3.104-1.499,5.372-0.036,10.261-1.266
						c1.837-0.462,3.7-1.442,5.535-2.406c0.13,0.504,0.4,0.853,0.727,1.082c0.365,0.806,1.135,1.123,1.752,1.187
						c0.888,0.092,1.76-0.276,2.528-0.73c1.447-0.856,2.689-2.056,3.596-3.472c0.594-0.928,1.053-1.986,1.041-3.087
						C259.001,182.497,258.451,181.95,258.059,181.741z"/>
				</g>
				
					<path style="fill:#FFFFFF;stroke:#303030;stroke-width:1.5;stroke-linecap:round;stroke-linejoin:round;stroke-miterlimit:10;" d="
					M167.521,193.919c-0.777,1.213-1.385,4.736-0.562,6.604c0.859,1.949,2.936,3.542,4.184,5.69s0.981,5.359,4.191,9.079
					c2.173,2.519,6.222,2.711,6.222,2.711s0.365-10.359,3.026-15.541c6.534-12.725,14.872-18.49,20.63-20.548
					c0,0,0.368-3.826-2.834-4.026C194.06,177.367,176.725,179.552,167.521,193.919z"/>
				<path style="fill:none;stroke:#303030;stroke-width:1.5;stroke-linecap:round;stroke-linejoin:round;stroke-miterlimit:10;" d="
					M233.573,192.292c3.104-1.499,5.372-0.036,10.261-1.266c1.837-0.462,3.7-1.442,5.535-2.406c0.13,0.504,0.4,0.853,0.727,1.082
					c0.365,0.806,1.135,1.123,1.752,1.187c0.888,0.092,1.76-0.276,2.528-0.73c1.447-0.856,2.689-2.056,3.596-3.472
					c0.594-0.928,1.053-1.986,1.041-3.087c-0.013-1.102-0.562-1.649-0.954-1.858c1.147-1.15,1.695-2.776,1.487-4.208
					c-0.208-1.431-0.447-2.36-1.493-2.831c1.058-1.144,1.24-2.082,0.938-3.39c-0.371-1.611-1.9-2.468-3.642-2.809
					c2.673-1.269,5.486-2.243,8.372-2.9c1.362-0.31,3.741-1.118,3.634-2.923c-0.071-1.192-0.565-2.201-3.306-2.568
					c-2.591-0.347-5.237,0.237-7.757,0.805c-2.57,0.58-4.977,1.458-7.434,2.409c-2.459,0.952-4.042,1.756-6.049,2.37
					c-1.936,0.593-2.159-0.521-1.407-2.113c0.959-2.028,2.963-3.956,3.296-6.174c0.06-0.401,0.211-1.434-0.092-1.887
					c-0.564-0.843-1.163-1.109-1.829-1.136c-2.01-0.082-3.936,2.672-5.075,3.765c-1.505,1.444-3.083,2.819-4.38,4.462"/>
				<path style="fill:none;stroke:#303030;stroke-width:1.5;stroke-linecap:round;stroke-linejoin:round;stroke-miterlimit:10;" d="
					M258.571,174.114c-1.831,2.173-4.129,3.95-6.694,5.173c-1.188,0.567-2.471,1.022-3.786,0.981
					c-1.128-0.035-2.604-0.468-3.119-1.51c-0.677-1.37,0.137-2.814,1.321-3.571c0.624-0.398,1.199-0.86,1.862-1.191
					c1.139-0.568,2.082-1.292,3.037-2.134"/>
				<path style="fill:none;stroke:#303030;stroke-width:1.5;stroke-linecap:round;stroke-linejoin:round;stroke-miterlimit:10;" d="
					M258.059,181.741c-1.503,1.34-3.204,2.302-5.128,3.219c-1.188,0.567-2.471,1.023-3.786,0.981
					c-1.128-0.035-2.604-0.469-3.119-1.51c-0.677-1.37,0.008-2.339,1.192-3.096c0.624-0.398,0.887-0.693,1.55-1.023"/>
				<path style="fill:none;stroke:#303030;stroke-width:1.5;stroke-linecap:round;stroke-linejoin:round;stroke-miterlimit:10;" d="
					M244.962,178.714c-0.246,1.019-0.982,1.848-1.776,2.532c-2.882,2.483-6.906,3.581-10.649,2.907"/>
			</g>
		</g>
		<g id="Chest_00000044867627217772139910000002516106567469693881_">
			
				<path style="fill:#FFFFFF;stroke:#303030;stroke-width:1.5;stroke-linecap:round;stroke-linejoin:round;stroke-miterlimit:10;" d="
				M144.214,127.027c1.121,7.522-18.454,10.932-27.61,0.747l-29.293,10.599c0,0-9.715,9.465-6.136,50.864
				c2.703,31.273,3.954,45.107,6.944,67.808c13.337-11.687,28.423-9.186,49.173-9.616c28.932-0.6,47.185-9.189,50.564-21.582
				c-4.824-22.587-6.858-23.192-8.24-35.727c-2.78-25.207-1.169-42.235-11.175-58.056L144.214,127.027z"/>
			<path style="fill:none;stroke:#303030;stroke-width:1.5;stroke-linecap:round;stroke-linejoin:round;stroke-miterlimit:10;" d="
				M117.29,134.753c2.725,13.946,9.592,43.78,22.942,42.467s6.511-44.632,6.511-44.632"/>
			
				<path style="fill:#FFFFFF;stroke:#303030;stroke-width:1.5;stroke-linecap:round;stroke-linejoin:round;stroke-miterlimit:10;" d="
				M117.931,118.074l-0.143,2.877c0,0,5.114,4.278,14.081,4.035c8.967-0.242,11.069-2.289,11.069-2.289l-0.403-2.905
				c0,0,2.613-1.24,3.414,1.362c1.051,3.414,2.636,8.158,1.624,10.004c-1.012,1.846-3.827,5.835-14.572,6.549
				c-10.336,0.687-18.551-3.454-19.98-6.729c-0.812-1.861,0.184-5.825,1.278-10.029
				C115.352,116.908,117.931,118.074,117.931,118.074z"/>
		</g>
		<g id="Arm_00000183246150506712183650000015262678213386064542_">
			<g>
				<path style="fill:#AD6163;" d="M55.867,226.916c-2.451-3.857-3.364-12.966,2.419-34.888
					c4.679-17.738,10.164-35.184,16.756-42.485c6.592-7.301,12.077-8.222,12.077-8.222s10.744,13.75,8.634,38.519l-10.461,39.109
					L55.867,226.916z"/>
				
					<path style="fill:#FFFFFF;stroke:#303030;stroke-width:1.5;stroke-linecap:round;stroke-linejoin:round;stroke-miterlimit:10;" d="
					M92.519,199.147l-1.112,6.61c0,0-21.188,3.624-35.228-9.572c10.293-40.494,13.654-51.445,31.153-57.922
					c0,0,8.994,4.113,11.414,29.792C99.221,173.093,97.964,180.81,92.519,199.147z"/>
			</g>
			<g id="Mobile_00000020360700911489598650000015200953003366907579_">
				<g>
					<path style="fill:#303030;" d="M140.051,211.818c-0.762,0-1.473-0.304-2-0.857c-0.582-0.609-0.878-1.438-0.837-2.333
						l1.91-41.219c0.083-1.798,1.523-3.262,3.208-3.263l20.292-0.01c0.764,0,1.474,0.304,2.001,0.857
						c0.581,0.608,0.878,1.437,0.837,2.333l-1.91,41.219c-0.083,1.798-1.523,3.262-3.208,3.263l-20.292,0.011H140.051z"/>
					<path style="fill:#303030;" d="M162.624,164.885c0.555,0,1.072,0.222,1.457,0.625c0.438,0.459,0.662,1.092,0.63,1.781
						l-1.91,41.219c-0.065,1.405-1.168,2.548-2.459,2.548l-20.293,0.01c-0.555,0-1.073-0.222-1.457-0.625
						c-0.438-0.459-0.662-1.092-0.63-1.781l1.91-41.219c0.065-1.404,1.168-2.548,2.459-2.548l20.291-0.01H162.624 M162.624,163.385
						c-0.001,0-0.001,0-0.002,0l-20.292,0.01c-2.083,0.001-3.855,1.782-3.956,3.979l-1.91,41.219
						c-0.102,2.196,1.504,3.975,3.586,3.975c0.001,0,0.001,0,0.002,0l20.292-0.01c2.083-0.001,3.855-1.782,3.956-3.979l1.91-41.219
						C166.312,165.165,164.706,163.385,162.624,163.385L162.624,163.385z"/>
				</g>
				<path style="fill:#F55571;" d="M144.269,212.566l20.292-0.01c2.083-0.001,3.855-1.783,3.956-3.979l1.91-41.219
					c0.102-2.196-1.505-3.976-3.588-3.975l-20.292,0.01c-2.083,0.001-3.855,1.782-3.956,3.979l-1.91,41.219
					C140.579,210.788,142.186,212.567,144.269,212.566z"/>
				<g>
					<polygon style="fill:#303030;" points="146.567,167.538 150.35,167.536 149.935,176.468 146.152,176.47 					"/>
					<path style="fill:#303030;" d="M147.322,167.442h0.005H147.322 M149.565,168.286l-0.346,7.432l-2.282,0.001l0.345-7.432
						L149.565,168.286 M150.582,166.786L150.582,166.786l-4.178,0.002c-0.306,0-0.566,0.262-0.581,0.584l-0.43,9.264
						c-0.015,0.322,0.221,0.584,0.526,0.584c0,0,0,0,0,0l4.178-0.002c0.306,0,0.566-0.262,0.581-0.584l0.431-9.264
						C151.124,167.047,150.888,166.786,150.582,166.786L150.582,166.786z"/>
				</g>
				<path style="fill:#FFFFFF;" d="M146.874,169.558c-0.024,0.83,0.629,1.502,1.459,1.501s1.521-0.673,1.544-1.503
					c0.024-0.83-0.629-1.502-1.459-1.501C147.589,168.055,146.898,168.728,146.874,169.558z"/>
				<path style="fill:#FFFFFF;" d="M146.625,174.45c-0.024,0.83,0.629,1.502,1.459,1.501c0.829-0.001,1.521-0.673,1.545-1.503
					c0.024-0.83-0.629-1.502-1.459-1.501C147.34,172.947,146.649,173.62,146.625,174.45z"/>
			</g>
			<g id="Arm_00000103951779568744402960000013714356047681066933_">
				<path style="fill:#AD6163;" d="M54.168,220.822c-0.569-5.163,8.977-15.215,16.468-18.292c12.859-5.282,40.675-4.462,47.46-5.395
					c4.18-0.575,7.269-3.015,8.444-4.057c4.333-3.841,6.911-6.207,10.982-7.312l-0.238,6.496c4.319,1.473,9.705,1.557,16.167-1.014
					c2.405-0.957,4.543-2.389,6.729-3.756c0.647-0.405,1.301-0.813,2.024-1.059c0.722-0.246,1.531-0.318,2.243-0.045
					c0.354,0.135,0.691,0.371,0.841,0.718c0.218,0.505-0.007,1.086-0.273,1.567c-0.98,1.768-2.516,3.154-4.07,4.446
					c-1.784,1.484-3.63,2.893-5.532,4.222c2.07-0.291,4.049-1.036,5.966-1.871c0.686-0.299,1.366-0.61,2.062-0.882
					c0.635-0.249,1.3-0.468,1.982-0.44c1.306,0.053,2.098,1.078,2.097,2.391c0,0.824-0.426,1.299-0.86,1.96
					c1.557,2.299-0.023,4.922-0.584,5.467c-2.844,2.76-7.662,5.151-11.366,6.561c0.937,0.141,3.217-0.001,5.212-0.47
					c1.411-0.331,3.198-0.716,4.463-0.32c1.759,0.551,1.339,2.34,0.02,3.141c-1.293,0.786-3.547,1.602-5.007,2
					c-9.049,2.468-15.365,1.357-26.854,2.261c-11.49,0.904-43.105,19.072-66.434,15.356
					C57.235,231.082,54.889,227.364,54.168,220.822z"/>
				
					<path style="fill:#FFFFFF;stroke:#303030;stroke-width:1.5;stroke-linecap:round;stroke-linejoin:round;stroke-miterlimit:10;" d="
					M89.807,198.678c-4.515-4.563-31.738-7.072-34.601-4.878c-2.863,2.193-1.289,7.858-2.636,11.732
					c-1.347,3.874-3.943,10.161,0.946,14.459C56.722,211.319,63.16,199.712,89.807,198.678z"/>
				<path style="fill:none;stroke:#303030;stroke-width:1.5;stroke-linecap:round;stroke-linejoin:round;stroke-miterlimit:10;" d="
					M166.568,198.905c-5.465,3.467-9.731,5.029-17.123,5.993"/>
				<path style="fill:none;stroke:#303030;stroke-width:1.5;stroke-linecap:round;stroke-linejoin:round;stroke-miterlimit:10;" d="
					M149.94,199.147c3.267-0.715,7.292-2.222,10.109-4.025"/>
				<path style="fill:none;stroke:#303030;stroke-width:1.5;stroke-linecap:round;stroke-linejoin:round;stroke-miterlimit:10;" d="
					M150.83,210.79c2.604-0.13,6.381-0.745,9.203-1.644"/>
			</g>
		</g>
	</g>
</g>
</svg>
